<?xml version="1.0" encoding="UTF-8"?>
<svg xmlns="http://www.w3.org/2000/svg" xmlns:xlink="http://www.w3.org/1999/xlink" width="121pt" height="121pt" viewBox="0 0 121 121" version="1.1">
<g id="surface1">
<path style="fill:none;stroke-width:0.3985;stroke-linecap:butt;stroke-linejoin:miter;stroke:rgb(0%,0%,0%);stroke-opacity:1;stroke-miterlimit:10;" d="M -59.128253 -0.000218416 L 59.131459 -0.000218416 " transform="matrix(1.00005,0,0,-1.00002,60.322616,60.327907)"/>
<path style="fill:none;stroke-width:0.3985;stroke-linecap:round;stroke-linejoin:round;stroke:rgb(0%,0%,0%);stroke-opacity:1;stroke-miterlimit:10;" d="M -2.071957 2.390796 C -1.69307 0.957231 -0.849362 0.277557 -0.00174792 0.000218416 C -0.849362 -0.27712 -1.69307 -0.956794 -2.071957 -2.390359 " transform="matrix(-1.00005,0,0,1.00002,0.990439,60.327907)"/>
<path style="fill:none;stroke-width:0.3985;stroke-linecap:round;stroke-linejoin:round;stroke:rgb(0%,0%,0%);stroke-opacity:1;stroke-miterlimit:10;" d="M -2.072658 2.390359 C -1.69377 0.956794 -0.850062 0.27712 0.00145752 -0.000218416 C -0.850062 -0.277557 -1.69377 -0.957231 -2.072658 -2.390796 " transform="matrix(1.00005,0,0,-1.00002,119.654792,60.327907)"/>
<path style="fill:none;stroke-width:0.3985;stroke-linecap:butt;stroke-linejoin:miter;stroke:rgb(0%,0%,0%);stroke-opacity:1;stroke-miterlimit:10;" d="M 0.00160272 -59.131848 L 0.00160272 59.131411 " transform="matrix(1.00005,0,0,-1.00002,60.322616,60.327907)"/>
<path style="fill:none;stroke-width:0.3985;stroke-linecap:round;stroke-linejoin:round;stroke:rgb(0%,0%,0%);stroke-opacity:1;stroke-miterlimit:10;" d="M -2.072324 2.392108 C -1.693426 0.95468 -0.849692 0.278933 0.00185305 0.00160272 C -0.849692 -0.279633 -1.693426 -0.955381 -2.072324 -2.392809 " transform="matrix(0,1.00002,1.00005,0,60.322616,119.658303)"/>
<path style="fill:none;stroke-width:0.3985;stroke-linecap:round;stroke-linejoin:round;stroke:rgb(0%,0%,0%);stroke-opacity:1;stroke-miterlimit:10;" d="M -2.072761 2.392809 C -1.693862 0.955381 -0.850129 0.279633 0.00141622 -0.00160272 C -0.850129 -0.278933 -1.693862 -0.95468 -2.072761 -2.392108 " transform="matrix(0,-1.00002,-1.00005,0,60.322616,0.99751)"/>
<path style="fill:none;stroke-width:0.79701;stroke-linecap:butt;stroke-linejoin:miter;stroke:rgb(0%,0%,100%);stroke-opacity:1;stroke-miterlimit:10;" d="M 0.00160272 -0.000218416 L 8.305875 -7.933653 L 11.993191 -10.945312 L 14.977416 -13.058551 L 17.610097 -14.663988 L 20.027945 -15.917869 L 22.289551 -16.902224 L 24.430069 -17.663928 L 26.469029 -18.238135 L 28.422057 -18.640471 L 30.300869 -18.902184 L 32.10156 -19.023275 L 33.835849 -19.027182 L 35.503734 -18.909996 L 37.10131 -18.691251 L 38.63639 -18.374851 L 40.10116 -17.964703 L 41.499528 -17.464713 L 42.827586 -16.890506 L 44.089242 -16.238175 L 45.280589 -15.515533 L 46.39772 -14.726486 L 47.440637 -13.874941 L 48.413245 -12.972615 L 49.303825 -12.015603 L 50.120191 -11.011717 L 50.858435 -9.964863 L 51.518558 -8.882853 L 52.096654 -7.765688 L 52.592723 -6.62118 L 53.010671 -5.449328 L 53.342686 -4.257946 L 53.592673 -3.050939 L 53.760634 -1.836119 L 53.842661 -0.613487 L 53.842661 0.613051 L 53.760634 1.835682 L 53.592673 3.050502 L 53.342686 4.257509 L 53.010671 5.448891 L 52.592723 6.616837 L 52.096654 7.765251 L 51.518558 8.882416 L 50.858435 9.964426 L 50.120191 11.01128 L 49.303825 12.01126 L 48.413245 12.972178 L 47.440637 13.874504 L 46.39772 14.72605 L 45.280589 15.515096 L 44.089242 16.237738 L 42.831492 16.890069 L 41.499528 17.464276 L 40.10116 17.964266 L 38.63639 18.374414 L 37.10131 18.690814 L 35.503734 18.90956 L 33.835849 19.022839 L 32.10156 19.026745 L 30.300869 18.901747 L 28.425963 18.64394 L 26.469029 18.233792 L 24.430069 17.663491 L 22.289551 16.901787 L 20.027945 15.917432 L 17.614003 14.667457 L 14.977416 13.06202 L 11.993191 10.948781 L 8.305875 7.937123 L 0.169563 0.171653 " transform="matrix(1.00005,0,0,-1.00002,60.322616,60.327907)"/>
<path style="fill:none;stroke-width:0.79701;stroke-linecap:butt;stroke-linejoin:miter;stroke:rgb(0%,0%,100%);stroke-opacity:1;stroke-miterlimit:10;" d="M 0.00160272 -0.000218416 L -8.306576 7.937123 L -11.993891 10.948781 L -14.978117 13.058114 L -17.610798 14.663551 L -20.028646 15.917432 L -22.286345 16.901787 L -24.426863 17.663491 L -26.46973 18.237698 L -28.422757 18.64394 L -30.30157 18.901747 L -32.102261 19.026745 L -33.836549 19.026745 L -35.504434 18.913466 L -37.102011 18.690814 L -38.633184 18.374414 L -40.101861 17.964266 L -41.500228 17.468182 L -42.828287 16.890069 L -44.089943 16.237738 L -45.281289 15.515096 L -46.394515 14.72605 L -47.441338 13.874504 L -48.410039 12.972178 L -49.304526 12.015166 L -50.120891 11.01128 L -50.859135 9.964426 L -51.515353 8.882416 L -52.093449 7.765251 L -52.593424 6.620743 L -53.007466 5.448891 L -53.343386 4.257509 L -53.593374 3.054408 L -53.761334 1.835682 L -53.843361 0.613051 L -53.843361 -0.613487 L -53.761334 -1.836119 L -53.593374 -3.050939 L -53.343386 -4.257946 L -53.007466 -5.449328 L -52.593424 -6.617274 L -52.097355 -7.765688 L -51.515353 -8.878947 L -50.859135 -9.964863 L -50.120891 -11.011717 L -49.304526 -12.011697 L -48.413945 -12.972615 L -47.441338 -13.874941 L -46.394515 -14.726486 L -45.281289 -15.515533 L -44.089943 -16.234269 L -42.828287 -16.886599 L -41.500228 -17.464713 L -40.101861 -17.964703 L -38.63709 -18.374851 L -37.102011 -18.691251 L -35.504434 -18.909996 L -33.836549 -19.023275 L -32.102261 -19.023275 L -30.30157 -18.902184 L -28.422757 -18.644377 L -26.46973 -18.234229 L -24.430769 -17.663928 L -22.290251 -16.902224 L -20.028646 -15.917869 L -17.614704 -14.663988 L -14.978117 -13.062457 L -11.993891 -10.949218 L -8.306576 -7.93756 L -0.170264 -0.168184 " transform="matrix(1.00005,0,0,-1.00002,60.322616,60.327907)"/>
</g>
</svg>
