<?xml version="1.0" encoding="UTF-8"?>
<svg xmlns="http://www.w3.org/2000/svg" xmlns:xlink="http://www.w3.org/1999/xlink" width="121pt" height="121pt" viewBox="0 0 121 121" version="1.1">
<g id="surface1">
<path style="fill:none;stroke-width:0.3985;stroke-linecap:butt;stroke-linejoin:miter;stroke:rgb(0%,0%,0%);stroke-opacity:1;stroke-miterlimit:10;" d="M -59.128253 -0.000218416 L 59.131459 -0.000218416 " transform="matrix(1.00005,0,0,-1.00002,60.322616,60.327907)"/>
<path style="fill:none;stroke-width:0.3985;stroke-linecap:round;stroke-linejoin:round;stroke:rgb(0%,0%,0%);stroke-opacity:1;stroke-miterlimit:10;" d="M -2.071957 2.390796 C -1.69307 0.957231 -0.849362 0.277557 -0.00174792 0.000218416 C -0.849362 -0.27712 -1.69307 -0.956794 -2.071957 -2.390359 " transform="matrix(-1.00005,0,0,1.00002,0.990439,60.327907)"/>
<path style="fill:none;stroke-width:0.3985;stroke-linecap:round;stroke-linejoin:round;stroke:rgb(0%,0%,0%);stroke-opacity:1;stroke-miterlimit:10;" d="M -2.072658 2.390359 C -1.69377 0.956794 -0.850062 0.27712 0.00145752 -0.000218416 C -0.850062 -0.277557 -1.69377 -0.957231 -2.072658 -2.390796 " transform="matrix(1.00005,0,0,-1.00002,119.654792,60.327907)"/>
<path style="fill:none;stroke-width:0.3985;stroke-linecap:butt;stroke-linejoin:miter;stroke:rgb(0%,0%,0%);stroke-opacity:1;stroke-miterlimit:10;" d="M 0.00160272 -59.131848 L 0.00160272 59.131411 " transform="matrix(1.00005,0,0,-1.00002,60.322616,60.327907)"/>
<path style="fill:none;stroke-width:0.3985;stroke-linecap:round;stroke-linejoin:round;stroke:rgb(0%,0%,0%);stroke-opacity:1;stroke-miterlimit:10;" d="M -2.072324 2.392108 C -1.693426 0.95468 -0.849692 0.278933 0.00185305 0.00160272 C -0.849692 -0.279633 -1.693426 -0.955381 -2.072324 -2.392809 " transform="matrix(0,1.00002,1.00005,0,60.322616,119.658303)"/>
<path style="fill:none;stroke-width:0.3985;stroke-linecap:round;stroke-linejoin:round;stroke:rgb(0%,0%,0%);stroke-opacity:1;stroke-miterlimit:10;" d="M -2.072761 2.392809 C -1.693862 0.955381 -0.850129 0.279633 0.00141622 -0.00160272 C -0.850129 -0.278933 -1.693862 -0.95468 -2.072761 -2.392108 " transform="matrix(0,-1.00002,-1.00005,0,60.322616,0.99751)"/>
<path style="fill:none;stroke-width:0.79701;stroke-linecap:butt;stroke-linejoin:miter;stroke:rgb(0%,0%,100%);stroke-opacity:1;stroke-miterlimit:10;" d="M 0.00160272 -0.000218416 L 0.845311 0.0661865 L 1.6773 0.265401 L 2.478041 0.597426 L 3.228004 1.054448 L 3.919376 1.632561 L 4.532626 2.323954 L 5.056037 3.116907 L 5.473985 4.003608 L 5.778658 4.972338 L 5.962242 6.007474 L 6.013021 7.101202 L 5.919276 8.230086 L 5.684912 9.386313 L 5.302119 10.546446 L 4.763083 11.698766 L 4.075618 12.823744 L 3.239722 13.905753 L 2.255396 14.925264 L 1.130453 15.870558 L -0.131203 16.722103 L -1.517853 17.464276 L -3.02559 18.077545 L -4.634884 18.558004 L -6.334018 18.886123 L -8.111273 19.050182 L -9.951025 19.046276 L -11.833743 18.858779 L -13.743804 18.487693 L -15.665583 17.921298 L -17.571737 17.159595 L -19.45055 16.206489 L -21.278583 15.054168 L -23.036308 13.706539 L -24.700287 12.171413 L -26.258803 10.456604 L -27.692325 8.566017 L -28.973511 6.51137 L -30.098455 4.304383 L -31.039814 1.96068 L -31.78587 -0.500208 L -32.328812 -3.07047 L -32.649108 -5.726666 L -32.738948 -8.449268 L -32.594424 -11.218744 L -32.203818 -14.011657 L -31.563225 -16.808476 L -30.668739 -19.585764 L -29.528171 -22.320085 L -28.133709 -24.984094 L -26.493166 -27.562167 L -24.614354 -30.023055 L -22.505084 -32.351134 L -20.17317 -34.519059 L -17.634234 -36.511207 L -14.899996 -38.30414 L -11.989985 -39.882233 L -8.919826 -41.225956 L -5.712955 -42.319685 L -2.388903 -43.151699 L 1.032801 -43.706376 L 4.52872 -43.975901 L 8.067606 -43.956371 L 11.629928 -43.636064 L 15.184437 -43.014983 L 18.711605 -42.08922 L 22.180181 -40.862682 L 25.562825 -39.343182 L 28.836098 -37.530718 L 31.976566 -35.43701 L 34.949074 -33.06987 L 37.741903 -30.448828 L 40.327711 -27.585604 L 42.683062 -24.491916 L 44.78452 -21.195107 L 46.624272 -17.714708 L 48.174975 -14.07025 L 49.432725 -10.289075 L 50.37799 -6.394622 L 50.999053 -2.418139 L 51.295913 1.616937 L 51.256852 5.687168 L 50.885777 9.757399 L 50.174875 13.796381 L 49.131959 17.784582 L 47.757027 21.682942 L 46.0618 25.471928 L 44.054088 29.120293 L 41.745609 32.600692 L 39.151989 35.889689 L 36.292757 38.963846 L 33.179631 41.799727 L 29.843861 44.3778 L 26.297163 46.670723 L 22.570787 48.674589 L 18.684262 50.365962 L 14.668838 51.733122 L 10.551856 52.764351 L 6.36066 53.45965 L 2.126496 53.811205 L -2.123291 53.811205 L -6.357454 53.463556 L -10.548651 52.768257 L -14.665633 51.733122 L -18.681057 50.365962 L -22.567581 48.674589 L -26.293958 46.674629 L -29.840655 44.3778 L -33.180332 41.799727 L -36.289551 38.967752 L -39.15269 35.893595 L -41.74631 32.604598 L -44.050882 29.124199 L -46.058594 25.475835 L -47.753822 21.686848 L -49.132659 17.784582 L -50.175576 13.800287 L -50.886478 9.757399 L -51.257553 5.687168 L -51.296614 1.620843 L -50.999753 -2.414233 L -50.378691 -6.394622 L -49.433426 -10.285169 L -48.175676 -14.07025 L -46.624972 -17.714708 L -44.78522 -21.195107 L -42.683763 -24.491916 L -40.328412 -27.581698 L -37.742604 -30.448828 L -34.953681 -33.06987 L -31.977267 -35.43701 L -28.836799 -37.526812 L -25.567431 -39.343182 L -22.180882 -40.862682 L -18.716211 -42.08922 L -15.189044 -43.011077 L -11.630628 -43.636064 L -8.068306 -43.956371 L -4.529421 -43.975901 L -1.037408 -43.706376 L 2.384296 -43.151699 L 5.712255 -42.319685 L 8.919126 -41.225956 L 11.989285 -39.882233 L 14.899295 -38.308046 L 17.633534 -36.511207 L 20.172469 -34.522965 L 22.504384 -32.35504 L 24.613653 -30.026962 L 26.492466 -27.562167 L 28.133009 -24.988 L 29.52747 -22.320085 L 30.668038 -19.585764 L 31.562525 -16.812382 L 32.203118 -14.015563 L 32.593723 -11.22265 L 32.742153 -8.453174 L 32.652314 -5.726666 L 32.328111 -3.07047 L 31.789076 -0.504115 L 31.039113 1.96068 L 30.097754 4.304383 L 28.976716 6.507464 L 27.691624 8.56211 L 26.262008 10.452698 L 24.703493 12.171413 L 23.035607 13.706539 L 21.277883 15.050262 L 19.449849 16.202583 L 17.574943 17.159595 L 15.664882 17.921298 L 13.747009 18.487693 L 11.836948 18.858779 L 9.950324 19.042369 L 8.114478 19.050182 L 6.337223 18.886123 L 4.634184 18.558004 L 3.024889 18.081451 L 1.521058 17.464276 L 0.130503 16.722103 L -1.127247 15.874464 L -2.256097 14.92917 L -3.240423 13.90966 L -4.076318 12.823744 L -4.763784 11.698766 L -5.298914 10.546446 L -5.685613 9.386313 L -5.919976 8.233992 L -6.009815 7.101202 L -5.962943 6.01138 L -5.779358 4.972338 L -5.474686 4.003608 L -5.052832 3.116907 L -4.533327 2.323954 L -3.920076 1.632561 L -3.228705 1.054448 L -2.478742 0.597426 L -1.678001 0.265401 L -0.846011 0.0661865 L 0.00160272 -0.000218416 " transform="matrix(1.00005,0,0,-1.00002,60.322616,60.327907)"/>
</g>
</svg>
