<?xml version="1.0" encoding="UTF-8"?>
<svg xmlns="http://www.w3.org/2000/svg" xmlns:xlink="http://www.w3.org/1999/xlink" width="121pt" height="121pt" viewBox="0 0 121 121" version="1.1">
<g id="surface1">
<path style="fill:none;stroke-width:0.3985;stroke-linecap:butt;stroke-linejoin:miter;stroke:rgb(0%,0%,0%);stroke-opacity:1;stroke-miterlimit:10;" d="M -59.128253 -0.000218416 L 59.131459 -0.000218416 " transform="matrix(1.00005,0,0,-1.00002,60.322616,60.327907)"/>
<path style="fill:none;stroke-width:0.3985;stroke-linecap:round;stroke-linejoin:round;stroke:rgb(0%,0%,0%);stroke-opacity:1;stroke-miterlimit:10;" d="M -2.071957 2.390796 C -1.69307 0.957231 -0.849362 0.277557 -0.00174792 0.000218416 C -0.849362 -0.27712 -1.69307 -0.956794 -2.071957 -2.390359 " transform="matrix(-1.00005,0,0,1.00002,0.990439,60.327907)"/>
<path style="fill:none;stroke-width:0.3985;stroke-linecap:round;stroke-linejoin:round;stroke:rgb(0%,0%,0%);stroke-opacity:1;stroke-miterlimit:10;" d="M -2.072658 2.390359 C -1.69377 0.956794 -0.850062 0.27712 0.00145752 -0.000218416 C -0.850062 -0.277557 -1.69377 -0.957231 -2.072658 -2.390796 " transform="matrix(1.00005,0,0,-1.00002,119.654792,60.327907)"/>
<path style="fill:none;stroke-width:0.3985;stroke-linecap:butt;stroke-linejoin:miter;stroke:rgb(0%,0%,0%);stroke-opacity:1;stroke-miterlimit:10;" d="M 0.00160272 -59.131848 L 0.00160272 59.131411 " transform="matrix(1.00005,0,0,-1.00002,60.322616,60.327907)"/>
<path style="fill:none;stroke-width:0.3985;stroke-linecap:round;stroke-linejoin:round;stroke:rgb(0%,0%,0%);stroke-opacity:1;stroke-miterlimit:10;" d="M -2.072324 2.392108 C -1.693426 0.95468 -0.849692 0.278933 0.00185305 0.00160272 C -0.849692 -0.279633 -1.693426 -0.955381 -2.072324 -2.392809 " transform="matrix(0,1.00002,1.00005,0,60.322616,119.658303)"/>
<path style="fill:none;stroke-width:0.3985;stroke-linecap:round;stroke-linejoin:round;stroke:rgb(0%,0%,0%);stroke-opacity:1;stroke-miterlimit:10;" d="M -2.072761 2.392809 C -1.693862 0.955381 -0.850129 0.279633 0.00141622 -0.00160272 C -0.850129 -0.278933 -1.693862 -0.95468 -2.072761 -2.392108 " transform="matrix(0,-1.00002,-1.00005,0,60.322616,0.99751)"/>
<path style="fill:none;stroke-width:0.79701;stroke-linecap:butt;stroke-linejoin:miter;stroke:rgb(0%,0%,100%);stroke-opacity:1;stroke-miterlimit:10;" d="M 0.00160272 -0.000218416 L 0.282839 0.0271248 L 0.556262 0.105248 L 0.814062 0.238058 L 1.048425 0.417742 L 1.255446 0.6443 L 1.427313 0.913826 L 1.560119 1.218507 L 1.642146 1.554438 L 1.673394 1.913806 L 1.649958 2.292704 L 1.567931 2.683322 L 1.427313 3.077845 L 1.224198 3.464556 L 0.958586 3.839549 L 0.634384 4.191104 L 0.25159 4.515316 L -0.189794 4.800467 L -0.678051 5.038743 L -1.217086 5.230146 L -1.795182 5.359049 L -2.408433 5.421548 L -3.049026 5.417642 L -3.709149 5.335612 L -4.380991 5.175459 L -5.052832 4.937183 L -5.716861 4.612971 L -6.36136 4.210635 L -6.982423 3.722363 L -7.564425 3.152062 L -8.099555 2.507544 L -8.576093 1.788808 L -8.986229 0.999762 L -9.326056 0.148216 L -9.579949 -0.75411 L -9.744004 -1.703309 L -9.810407 -2.695477 L -9.775252 -3.711082 L -9.634634 -4.742311 L -9.384647 -5.781353 L -9.021384 -6.812582 L -8.544845 -7.824281 L -7.955031 -8.808636 L -7.255847 -9.746117 L -6.447294 -10.632818 L -5.533277 -11.449208 L -4.525515 -12.183568 L -3.427913 -12.831993 L -2.244379 -13.378857 L -0.990535 -13.812442 L 0.325805 -14.124936 L 1.692924 -14.312432 L 3.099104 -14.363212 L 4.52872 -14.277277 L 5.970054 -14.042906 L 7.407482 -13.664008 L 8.821474 -13.136674 L 10.204218 -12.460907 L 11.536182 -11.640611 L 12.801744 -10.679692 L 13.989185 -9.582058 L 15.078974 -8.351614 L 16.059394 -7.000078 L 16.918726 -5.53917 L 17.641346 -3.976701 L 18.219442 -2.324391 L 18.641296 -0.601769 L 18.895189 1.179445 L 18.981122 3.007534 L 18.883471 4.859059 L 18.606141 6.718397 L 18.141321 8.569923 L 17.492916 10.390199 L 16.660926 12.167507 L 15.645352 13.874504 L 14.457911 15.499472 L 13.098604 17.018972 L 11.579149 18.421288 L 9.91517 19.686888 L 8.110572 20.800147 L 6.184887 21.74544 L 4.149833 22.51105 L 2.028845 23.085257 L -0.166358 23.452438 L -2.412339 23.612591 L -4.689569 23.557904 L -6.974611 23.280566 L -9.251841 22.77667 L -11.497822 22.050122 L -13.685213 21.100922 L -15.794482 19.932977 L -17.802195 18.554098 L -19.692725 16.972098 L -21.438732 15.198696 L -23.028496 13.241704 L -24.434675 11.124559 L -25.645552 8.855073 L -26.641596 6.456684 L -27.411089 3.948921 L -27.942313 1.351317 L -28.227455 -1.308786 L -28.258703 -4.011857 L -28.028246 -6.730553 L -27.532177 -9.445342 L -26.770496 -12.12107 L -25.751016 -14.742111 L -24.473736 -17.27331 L -22.942563 -19.695137 L -21.17312 -21.980248 L -19.177126 -24.105205 L -16.966299 -26.046572 L -14.556263 -27.784819 L -11.970455 -29.296507 L -9.228405 -30.56992 L -6.353548 -31.581618 L -3.365416 -32.323791 L -0.295257 -32.780813 L 2.829586 -32.940966 L 5.981772 -32.80425 L 9.133959 -32.362852 L 12.254896 -31.62068 L 15.317243 -30.56992 L 18.289751 -29.226196 L 21.145077 -27.58951 L 23.851973 -25.67158 L 26.383096 -23.48803 L 28.715011 -21.054485 L 30.816468 -18.390476 L 32.67575 -15.515533 L 34.261608 -12.453094 L 35.558419 -9.226596 L 36.550557 -5.867289 L 37.222398 -2.402514 L 37.566131 1.136478 L 37.573943 4.718437 L 37.234116 8.312115 L 36.550557 11.882356 L 35.519358 15.397911 L 34.152239 18.82753 L 32.453105 22.132151 L 30.429769 25.280526 L 28.105666 28.24531 L 25.484704 30.995255 L 22.598129 33.503018 L 19.465473 35.737348 L 16.106266 37.674809 L 12.559569 39.299777 L 8.844911 40.588814 L 5.001353 41.522389 L 1.060144 42.09269 L -2.943563 42.287998 L -6.974611 42.096596 L -10.997847 41.522389 L -14.974211 40.56147 L -18.864641 39.217747 L -22.633984 37.499032 L -26.247085 35.417042 L -29.668789 32.987403 L -32.863942 30.22574 L -35.801295 27.151582 L -38.4496 23.792274 L -40.777608 20.175159 L -42.769696 16.32758 L -44.390709 12.284692 L -45.63674 8.081651 L -46.476542 3.753613 L -46.906208 -0.660361 L -46.91402 -5.125116 L -46.496072 -9.597683 L -45.652365 -14.035094 L -44.378991 -18.394382 L -42.691575 -22.640391 L -40.594024 -26.734059 L -38.101961 -30.628512 L -35.238823 -34.292501 L -32.020234 -37.686965 L -28.473536 -40.780653 L -24.629978 -43.534504 L -20.516903 -45.928987 L -16.17337 -47.928947 L -11.630628 -49.518759 L -6.93555 -50.678892 L -2.123291 -51.385909 L 2.759277 -51.639811 L 7.673094 -51.428877 L 12.571287 -50.745297 L 17.406982 -49.596883 L 22.137215 -47.983634 L 26.719017 -45.921175 L 31.105516 -43.417319 L 35.257652 -40.495502 L 39.132459 -37.17135 L 42.694781 -33.480018 L 45.909464 -29.444942 L 48.737447 -25.097373 L 51.155295 -20.480278 L 53.135665 -15.632718 L 54.65512 -10.58985 L 55.690225 -5.402454 L 56.237072 -0.113497 " transform="matrix(1.00005,0,0,-1.00002,60.322616,60.327907)"/>
</g>
</svg>
