<?xml version="1.0" encoding="UTF-8"?>
<svg xmlns="http://www.w3.org/2000/svg" xmlns:xlink="http://www.w3.org/1999/xlink" width="121pt" height="121pt" viewBox="0 0 121 121" version="1.1">
<g id="surface1">
<path style="fill:none;stroke-width:0.3985;stroke-linecap:butt;stroke-linejoin:miter;stroke:rgb(0%,0%,0%);stroke-opacity:1;stroke-miterlimit:10;" d="M -59.128253 -0.000218416 L 59.131459 -0.000218416 " transform="matrix(1.00005,0,0,-1.00002,60.322616,60.327907)"/>
<path style="fill:none;stroke-width:0.3985;stroke-linecap:round;stroke-linejoin:round;stroke:rgb(0%,0%,0%);stroke-opacity:1;stroke-miterlimit:10;" d="M -2.071957 2.390796 C -1.69307 0.957231 -0.849362 0.277557 -0.00174792 0.000218416 C -0.849362 -0.27712 -1.69307 -0.956794 -2.071957 -2.390359 " transform="matrix(-1.00005,0,0,1.00002,0.990439,60.327907)"/>
<path style="fill:none;stroke-width:0.3985;stroke-linecap:round;stroke-linejoin:round;stroke:rgb(0%,0%,0%);stroke-opacity:1;stroke-miterlimit:10;" d="M -2.072658 2.390359 C -1.69377 0.956794 -0.850062 0.27712 0.00145752 -0.000218416 C -0.850062 -0.277557 -1.69377 -0.957231 -2.072658 -2.390796 " transform="matrix(1.00005,0,0,-1.00002,119.654792,60.327907)"/>
<path style="fill:none;stroke-width:0.3985;stroke-linecap:butt;stroke-linejoin:miter;stroke:rgb(0%,0%,0%);stroke-opacity:1;stroke-miterlimit:10;" d="M 0.00160272 -59.131848 L 0.00160272 59.131411 " transform="matrix(1.00005,0,0,-1.00002,60.322616,60.327907)"/>
<path style="fill:none;stroke-width:0.3985;stroke-linecap:round;stroke-linejoin:round;stroke:rgb(0%,0%,0%);stroke-opacity:1;stroke-miterlimit:10;" d="M -2.072324 2.392108 C -1.693426 0.95468 -0.849692 0.278933 0.00185305 0.00160272 C -0.849692 -0.279633 -1.693426 -0.955381 -2.072324 -2.392809 " transform="matrix(0,1.00002,1.00005,0,60.322616,119.658303)"/>
<path style="fill:none;stroke-width:0.3985;stroke-linecap:round;stroke-linejoin:round;stroke:rgb(0%,0%,0%);stroke-opacity:1;stroke-miterlimit:10;" d="M -2.072761 2.392809 C -1.693862 0.955381 -0.850129 0.279633 0.00141622 -0.00160272 C -0.850129 -0.278933 -1.693862 -0.95468 -2.072761 -2.392108 " transform="matrix(0,-1.00002,-1.00005,0,60.322616,0.99751)"/>
<path style="fill:none;stroke-width:0.79701;stroke-linecap:butt;stroke-linejoin:miter;stroke:rgb(0%,0%,100%);stroke-opacity:1;stroke-miterlimit:10;" d="M 51.022489 -0.000218416 L 50.811562 3.59346 L 50.178781 7.132451 L 49.139771 10.565977 L 47.706249 13.843255 L 45.905558 16.913506 L 43.768946 19.733762 L 41.331567 22.268867 L 38.63639 24.479761 L 35.722473 26.339099 L 32.63669 27.82735 L 29.437631 28.921078 L 26.172169 29.620283 L 22.891083 29.921058 L 19.645152 29.82731 L 16.48906 29.350757 L 13.465773 28.51093 L 10.622165 27.335172 L 7.997297 25.850827 L 5.626321 24.09305 L 3.540488 22.104808 L 1.763233 19.925164 L 0.310181 17.604898 L -0.803045 15.186978 L -1.580349 12.718277 L -2.013922 10.249577 L -2.119385 7.823844 L -1.912364 5.491859 L -1.412389 3.284872 L -0.646802 1.249757 L 0.357054 -0.586144 L 1.560119 -2.195487 L 2.919426 -3.550929 L 4.403726 -4.640751 L 5.958336 -5.457141 L 7.5481 -5.98838 L 9.130053 -6.246187 L 10.65732 -6.234469 L 12.090842 -5.972755 L 13.395464 -5.480578 L 14.539938 -4.781373 L 15.48911 -3.90639 L 16.223448 -2.894692 L 16.723423 -1.777527 L 16.97341 -0.597863 L 16.97341 0.597426 L 16.723423 1.77709 L 16.223448 2.894255 L 15.48911 3.905953 L 14.539938 4.780936 L 13.395464 5.480141 L 12.090842 5.972318 L 10.65732 6.237938 L 9.130053 6.24575 L 7.5481 5.987943 L 5.958336 5.456704 L 4.403726 4.640314 L 2.919426 3.550492 L 1.560119 2.19505 L 0.357054 0.585707 L -0.646802 -1.250193 L -1.412389 -3.285309 L -1.912364 -5.48839 L -2.119385 -7.824281 L -2.013922 -10.250013 L -1.580349 -12.718714 L -0.803045 -15.187415 L 0.310181 -17.605335 L 1.763233 -19.925601 L 3.540488 -22.105245 L 5.626321 -24.093487 L 7.997297 -25.851264 L 10.622165 -27.335609 L 13.465773 -28.511367 L 16.48906 -29.351194 L 19.645152 -29.827747 L 22.891083 -29.921495 L 26.168263 -29.62072 L 29.437631 -28.921515 L 32.63669 -27.823881 L 35.722473 -26.339535 L 38.632484 -24.480198 L 41.331567 -22.269304 L 43.768946 -19.734199 L 45.905558 -16.913943 L 47.706249 -13.839785 L 49.135865 -10.566413 L 50.178781 -7.132888 L 50.811562 -3.593897 L 51.022489 -0.000218416 " transform="matrix(1.00005,0,0,-1.00002,60.322616,60.327907)"/>
</g>
</svg>
