<?xml version="1.0" encoding="UTF-8"?>
<svg xmlns="http://www.w3.org/2000/svg" xmlns:xlink="http://www.w3.org/1999/xlink" width="121pt" height="121pt" viewBox="0 0 121 121" version="1.1">
<g id="surface1">
<path style="fill:none;stroke-width:0.3985;stroke-linecap:butt;stroke-linejoin:miter;stroke:rgb(0%,0%,0%);stroke-opacity:1;stroke-miterlimit:10;" d="M -59.128253 -0.000218416 L 59.131459 -0.000218416 " transform="matrix(1.00005,0,0,-1.00002,60.322616,60.327907)"/>
<path style="fill:none;stroke-width:0.3985;stroke-linecap:round;stroke-linejoin:round;stroke:rgb(0%,0%,0%);stroke-opacity:1;stroke-miterlimit:10;" d="M -2.071957 2.390796 C -1.69307 0.957231 -0.849362 0.277557 -0.00174792 0.000218416 C -0.849362 -0.27712 -1.69307 -0.956794 -2.071957 -2.390359 " transform="matrix(-1.00005,0,0,1.00002,0.990439,60.327907)"/>
<path style="fill:none;stroke-width:0.3985;stroke-linecap:round;stroke-linejoin:round;stroke:rgb(0%,0%,0%);stroke-opacity:1;stroke-miterlimit:10;" d="M -2.072658 2.390359 C -1.69377 0.956794 -0.850062 0.27712 0.00145752 -0.000218416 C -0.850062 -0.277557 -1.69377 -0.957231 -2.072658 -2.390796 " transform="matrix(1.00005,0,0,-1.00002,119.654792,60.327907)"/>
<path style="fill:none;stroke-width:0.3985;stroke-linecap:butt;stroke-linejoin:miter;stroke:rgb(0%,0%,0%);stroke-opacity:1;stroke-miterlimit:10;" d="M 0.00160272 -59.131848 L 0.00160272 59.131411 " transform="matrix(1.00005,0,0,-1.00002,60.322616,60.327907)"/>
<path style="fill:none;stroke-width:0.3985;stroke-linecap:round;stroke-linejoin:round;stroke:rgb(0%,0%,0%);stroke-opacity:1;stroke-miterlimit:10;" d="M -2.072324 2.392108 C -1.693426 0.95468 -0.849692 0.278933 0.00185305 0.00160272 C -0.849692 -0.279633 -1.693426 -0.955381 -2.072324 -2.392809 " transform="matrix(0,1.00002,1.00005,0,60.322616,119.658303)"/>
<path style="fill:none;stroke-width:0.3985;stroke-linecap:round;stroke-linejoin:round;stroke:rgb(0%,0%,0%);stroke-opacity:1;stroke-miterlimit:10;" d="M -2.072761 2.392809 C -1.693862 0.955381 -0.850129 0.279633 0.00141622 -0.00160272 C -0.850129 -0.278933 -1.693862 -0.95468 -2.072761 -2.392108 " transform="matrix(0,-1.00002,-1.00005,0,60.322616,0.99751)"/>
<path style="fill:none;stroke-width:0.79701;stroke-linecap:butt;stroke-linejoin:miter;stroke:rgb(0%,0%,100%);stroke-opacity:1;stroke-miterlimit:10;" d="M 51.022489 -0.000218416 L 50.831092 3.59346 L 50.260809 7.14417 L 49.323355 10.605038 L 48.030451 13.937003 L 46.39772 17.09319 L 44.456411 20.042349 L 42.22996 22.749327 L 39.749615 25.186778 L 37.054438 27.323454 L 34.183487 29.14373 L 31.175825 30.631981 L 28.074418 31.77649 L 24.918326 32.573349 L 21.750515 33.022559 L 18.613953 33.135838 L 15.5477 32.917092 L 12.586911 32.389759 L 9.766739 31.573369 L 7.12234 30.491359 L 4.673244 29.174979 L 2.446793 27.651572 L 0.458611 25.956294 L -1.279583 24.128205 L -2.756072 22.198556 L -3.970855 20.202503 L -4.927838 18.179105 L -5.630928 16.163521 L -6.095749 14.183092 L -6.334018 12.272974 L -6.369172 10.452698 L -6.216836 8.753513 L -5.912164 7.187138 L -5.474686 5.773104 L -4.939556 4.519222 L -4.330212 3.433307 L -3.677901 2.519262 L -3.017778 1.765371 L -2.365466 1.167727 L -1.760028 0.718517 L -1.21318 0.398211 L -0.752266 0.191184 L -0.389003 0.0700927 L -0.142921 0.0154063 L -0.0179276 -0.000218416 L -0.142921 -0.0158431 L -0.389003 -0.0705295 L -0.752266 -0.187715 L -1.21318 -0.398648 L -1.760028 -0.718954 L -2.365466 -1.168164 L -3.017778 -1.765808 L -3.677901 -2.515793 L -4.330212 -3.433743 L -4.939556 -4.519659 L -5.474686 -5.77354 L -5.912164 -7.187575 L -6.216836 -8.750043 L -6.369172 -10.453134 L -6.334018 -12.269504 L -6.095749 -14.183528 L -5.630928 -16.163958 L -4.927838 -18.179542 L -3.970855 -20.202939 L -2.756072 -22.195087 L -1.279583 -24.128642 L 0.458611 -25.956731 L 2.446793 -27.648103 L 4.673244 -29.17151 L 7.12234 -30.491796 L 9.766739 -31.573806 L 12.586911 -32.390196 L 15.5477 -32.917529 L 18.613953 -33.132368 L 21.750515 -33.022995 L 24.918326 -32.573786 L 28.070512 -31.77302 L 31.175825 -30.632418 L 34.183487 -29.144167 L 37.054438 -27.323891 L 39.749615 -25.187215 L 42.22996 -22.749763 L 44.456411 -20.042786 L 46.39772 -17.093627 L 48.026545 -13.933533 L 49.323355 -10.605475 L 50.260809 -7.144607 L 50.831092 -3.593897 L 51.022489 -0.000218416 " transform="matrix(1.00005,0,0,-1.00002,60.322616,60.327907)"/>
</g>
</svg>
