<?xml version="1.0" encoding="UTF-8"?>
<svg xmlns="http://www.w3.org/2000/svg" xmlns:xlink="http://www.w3.org/1999/xlink" width="134pt" height="77pt" viewBox="0 0 134 77" version="1.1">
<g id="surface1">
<path style="fill-rule:nonzero;fill:rgb(84.999084%,84.999084%,100%);fill-opacity:1;stroke-width:0.79701;stroke-linecap:butt;stroke-linejoin:miter;stroke:rgb(0%,0%,100%);stroke-opacity:1;stroke-miterlimit:10;" d="M -0.000269552 36.282706 C -0.000269552 36.282706 4.097264 38.056002 5.667529 38.743447 C 7.241701 39.430892 9.765062 40.255045 11.339234 41.239341 C 12.913406 42.219732 15.432861 44.453928 17.007033 45.821006 C 18.581204 47.184178 21.104566 49.570706 22.678738 51.078398 C 24.249003 52.589996 26.772365 55.136667 28.346536 56.69123 C 29.920708 58.249699 32.44407 60.79637 34.014335 62.304062 C 35.588507 63.81566 38.111868 66.202188 39.68604 67.56536 C 41.256305 68.932438 43.779667 71.006491 45.353839 72.147025 C 46.92801 73.287559 49.451372 74.931958 51.021637 75.775641 C 52.595809 76.615417 55.119171 77.720798 56.693342 78.212946 C 58.267514 78.705094 60.786969 79.201148 62.361141 79.31442 C 63.935312 79.423786 66.458674 79.283173 68.032846 79.005851 C 69.603111 78.72853 72.126473 77.966872 73.700644 77.318486 C 75.274816 76.6701 77.798178 75.31474 79.368443 74.33435 C 80.942615 73.357865 83.465976 71.514263 85.040148 70.264363 C 86.610413 69.018369 89.133775 66.784173 90.707947 65.342882 C 92.282118 63.905497 94.80548 61.429132 96.375745 59.890193 C 97.949917 58.351253 100.473279 55.792864 102.04745 54.242207 C 103.621622 52.695456 106.141077 50.19175 107.715249 48.734835 C 109.289421 47.274015 111.812782 45.008571 113.386954 43.731329 C 114.957219 42.454088 117.480581 40.544084 119.054753 39.524635 C 120.628924 38.509091 123.152286 37.477923 124.722551 36.395979 C 126.296723 35.31794 129.605217 33.650105 130.394256 31.747913 C 131.179389 29.845721 131.179389 24.650825 130.394256 22.678326 C 129.605217 20.701922 126.296723 18.596621 124.722551 17.518583 C 123.152286 16.440544 120.628924 15.596861 119.054753 14.897699 C 117.480581 14.202442 114.957219 13.120497 113.386954 12.495547 C 111.812782 11.866691 109.289421 10.921454 107.715249 10.378529 C 106.141077 9.839509 103.621622 9.038792 102.04745 8.601327 C 100.473279 8.159956 97.949917 7.538912 96.375745 7.210813 C 94.80548 6.886621 92.282118 6.456968 90.707947 6.253859 C 89.133775 6.05075 86.610413 5.824206 85.040148 5.746087 C 83.465976 5.671874 80.942615 5.65625 79.368443 5.710933 C 77.798178 5.769523 75.274816 5.960913 73.700644 6.148398 C 72.126473 6.331978 69.603111 6.730383 68.032846 7.038952 C 66.458674 7.347521 63.935312 7.941224 62.361141 8.366971 C 60.786969 8.788812 58.267514 9.562188 56.693342 10.089489 C 55.119171 10.612885 52.595809 11.538592 51.021637 12.15573 C 49.451372 12.768963 46.92801 13.839189 45.353839 14.526634 C 43.779667 15.214079 41.256305 16.370237 39.68604 17.108459 C 38.111868 17.850587 35.588507 19.080958 34.014335 19.854333 C 32.44407 20.627709 29.920708 21.893233 28.346536 22.678326 C 26.772365 23.459514 24.249003 24.728943 22.678738 25.498413 C 21.104566 26.271789 18.581204 27.506065 17.007033 28.244287 C 15.432861 28.982509 12.913406 30.169914 11.339234 30.830018 C 9.765062 31.490121 7.241701 32.31818 5.667529 32.997813 C 4.097264 33.677446 0.784863 35.259351 -0.000269552 35.716346 C -0.785402 36.17334 -0.000269552 36.282706 -0.000269552 36.282706 " transform="matrix(1.00003,0,0,-1.00008,1.777613,81.426234)"/>
</g>
</svg>
