<?xml version="1.0" encoding="UTF-8"?>
<svg xmlns="http://www.w3.org/2000/svg" xmlns:xlink="http://www.w3.org/1999/xlink" width="121pt" height="121pt" viewBox="0 0 121 121" version="1.1">
<g id="surface1">
<path style="fill:none;stroke-width:0.3985;stroke-linecap:butt;stroke-linejoin:miter;stroke:rgb(0%,0%,0%);stroke-opacity:1;stroke-miterlimit:10;" d="M -59.128253 -0.000218416 L 59.131459 -0.000218416 " transform="matrix(1.00005,0,0,-1.00002,60.322616,60.327907)"/>
<path style="fill:none;stroke-width:0.3985;stroke-linecap:round;stroke-linejoin:round;stroke:rgb(0%,0%,0%);stroke-opacity:1;stroke-miterlimit:10;" d="M -2.071957 2.390796 C -1.69307 0.957231 -0.849362 0.277557 -0.00174792 0.000218416 C -0.849362 -0.27712 -1.69307 -0.956794 -2.071957 -2.390359 " transform="matrix(-1.00005,0,0,1.00002,0.990439,60.327907)"/>
<path style="fill:none;stroke-width:0.3985;stroke-linecap:round;stroke-linejoin:round;stroke:rgb(0%,0%,0%);stroke-opacity:1;stroke-miterlimit:10;" d="M -2.072658 2.390359 C -1.69377 0.956794 -0.850062 0.27712 0.00145752 -0.000218416 C -0.850062 -0.277557 -1.69377 -0.957231 -2.072658 -2.390796 " transform="matrix(1.00005,0,0,-1.00002,119.654792,60.327907)"/>
<path style="fill:none;stroke-width:0.3985;stroke-linecap:butt;stroke-linejoin:miter;stroke:rgb(0%,0%,0%);stroke-opacity:1;stroke-miterlimit:10;" d="M 0.00160272 -59.131848 L 0.00160272 59.131411 " transform="matrix(1.00005,0,0,-1.00002,60.322616,60.327907)"/>
<path style="fill:none;stroke-width:0.3985;stroke-linecap:round;stroke-linejoin:round;stroke:rgb(0%,0%,0%);stroke-opacity:1;stroke-miterlimit:10;" d="M -2.072324 2.392108 C -1.693426 0.95468 -0.849692 0.278933 0.00185305 0.00160272 C -0.849692 -0.279633 -1.693426 -0.955381 -2.072324 -2.392809 " transform="matrix(0,1.00002,1.00005,0,60.322616,119.658303)"/>
<path style="fill:none;stroke-width:0.3985;stroke-linecap:round;stroke-linejoin:round;stroke:rgb(0%,0%,0%);stroke-opacity:1;stroke-miterlimit:10;" d="M -2.072761 2.392809 C -1.693862 0.955381 -0.850129 0.279633 0.00141622 -0.00160272 C -0.850129 -0.278933 -1.693862 -0.95468 -2.072761 -2.392108 " transform="matrix(0,-1.00002,-1.00005,0,60.322616,0.99751)"/>
<path style="fill:none;stroke-width:0.79701;stroke-linecap:butt;stroke-linejoin:miter;stroke:rgb(0%,0%,100%);stroke-opacity:1;stroke-miterlimit:10;" d="M 0.00160272 -0.000218416 L 14.891483 -14.312432 L 20.664632 -19.081868 L 24.840205 -22.03884 L 28.164257 -24.007551 L 30.93365 -25.320025 L 33.300719 -26.17157 L 35.35921 -26.67156 L 37.179431 -26.898118 L 38.792632 -26.90593 L 40.241778 -26.745777 L 41.550307 -26.43719 L 42.729935 -26.007511 L 43.8041 -25.484084 L 44.780614 -24.874721 L 45.6751 -24.195047 L 46.495372 -23.456781 L 47.253146 -22.67164 L 47.940612 -21.839625 L 48.581205 -20.976361 L 49.159301 -20.077942 L 49.694431 -19.152179 L 50.182687 -18.202979 L 50.631884 -17.234249 L 51.045926 -16.249893 L 51.436531 -15.25382 L 51.772452 -14.238215 L 52.088842 -13.218704 L 52.373984 -12.187475 L 52.631784 -11.152339 L 52.858335 -10.105485 L 53.065356 -9.054725 L 53.241128 -8.000058 L 53.393464 -6.93758 L 53.52627 -5.875101 L 53.63564 -4.812622 L 53.721573 -3.742331 L 53.780164 -2.675946 L 53.82313 -1.605655 L 53.846567 -0.535364 L 53.846567 0.534927 L 53.82313 1.605218 L 53.780164 2.675509 L 53.721573 3.7458 L 53.63564 4.808279 L 53.52627 5.874664 L 53.393464 6.937143 L 53.241128 7.999622 L 53.057544 9.054288 L 52.858335 10.105048 L 52.63569 11.151902 L 52.373984 12.187038 L 52.088842 13.218267 L 51.772452 14.237778 L 51.436531 15.253383 L 51.049832 16.249457 L 50.631884 17.233812 L 50.182687 18.202543 L 49.694431 19.151742 L 49.163207 20.077505 L 48.573393 20.972018 L 47.940612 21.843095 L 47.253146 22.675109 L 46.503184 23.46025 L 45.6751 24.19461 L 44.78452 24.874284 L 43.8041 25.483647 L 42.729935 26.01098 L 41.550307 26.436753 L 40.241778 26.74534 L 38.792632 26.905493 L 37.179431 26.901587 L 35.35921 26.671123 L 33.304625 26.171133 L 30.93365 25.323494 L 28.168163 24.007114 L 24.840205 22.038403 L 20.664632 19.081431 L 14.891483 14.311995 L 0.00160272 -0.000218416 " transform="matrix(1.00005,0,0,-1.00002,60.322616,60.327907)"/>
<path style="fill:none;stroke-width:0.79701;stroke-linecap:butt;stroke-linejoin:miter;stroke:rgb(0%,0%,100%);stroke-opacity:1;stroke-miterlimit:10;" d="M 0.00160272 -0.000218416 L -14.892184 14.311995 L -20.665333 19.081431 L -24.836999 22.038403 L -28.164958 24.007114 L -30.93435 25.319588 L -33.30142 26.171133 L -35.35991 26.671123 L -37.180132 26.901587 L -38.793333 26.905493 L -40.242479 26.74534 L -41.547101 26.436753 L -42.730636 26.01098 L -43.804801 25.483647 L -44.781314 24.874284 L -45.675801 24.19461 L -46.496072 23.456344 L -47.253847 22.671203 L -47.941313 21.843095 L -48.578 20.975925 L -49.160002 20.077505 L -49.695131 19.151742 L -50.183388 18.202543 L -50.632584 17.233812 L -51.046626 16.249457 L -51.437232 15.253383 L -51.773152 14.237778 L -52.089543 13.218267 L -52.374685 12.187038 L -52.632484 11.151902 L -52.859035 10.105048 L -53.066056 9.054288 L -53.237923 7.999622 L -53.394165 6.937143 L -53.526971 5.874664 L -53.63634 4.812185 L -53.722274 3.741894 L -53.780864 2.675509 L -53.823831 1.605218 L -53.847267 0.534927 L -53.847267 -0.535364 L -53.823831 -1.605655 L -53.780864 -2.675946 L -53.722274 -3.746237 L -53.63634 -4.808716 L -53.526971 -5.875101 L -53.394165 -6.93758 L -53.237923 -8.000058 L -53.058244 -9.050819 L -52.859035 -10.105485 L -52.632484 -11.152339 L -52.374685 -12.187475 L -52.089543 -13.218704 L -51.773152 -14.238215 L -51.437232 -15.25382 L -51.046626 -16.249893 L -50.632584 -17.234249 L -50.183388 -18.202979 L -49.695131 -19.148273 L -49.160002 -20.077942 L -48.574093 -20.972455 L -47.941313 -21.839625 L -47.253847 -22.67164 L -46.499978 -23.460687 L -45.675801 -24.195047 L -44.781314 -24.874721 L -43.804801 -25.484084 L -42.730636 -26.011417 L -41.551007 -26.43719 L -40.242479 -26.745777 L -38.793333 -26.90593 L -37.180132 -26.898118 L -35.35991 -26.67156 L -33.30142 -26.17157 L -30.93435 -25.323931 L -28.164958 -24.007551 L -24.840905 -22.03884 L -20.665333 -19.081868 L -14.892184 -14.312432 L 0.00160272 -0.000218416 " transform="matrix(1.00005,0,0,-1.00002,60.322616,60.327907)"/>
</g>
</svg>
