<?xml version="1.0" encoding="UTF-8"?>
<svg xmlns="http://www.w3.org/2000/svg" xmlns:xlink="http://www.w3.org/1999/xlink" width="121pt" height="121pt" viewBox="0 0 121 121" version="1.1">
<g id="surface1">
<path style="fill:none;stroke-width:0.3985;stroke-linecap:butt;stroke-linejoin:miter;stroke:rgb(0%,0%,0%);stroke-opacity:1;stroke-miterlimit:10;" d="M -59.128253 -0.000218416 L 59.131459 -0.000218416 " transform="matrix(1.00005,0,0,-1.00002,60.322616,60.327907)"/>
<path style="fill:none;stroke-width:0.3985;stroke-linecap:round;stroke-linejoin:round;stroke:rgb(0%,0%,0%);stroke-opacity:1;stroke-miterlimit:10;" d="M -2.071957 2.390796 C -1.69307 0.957231 -0.849362 0.277557 -0.00174792 0.000218416 C -0.849362 -0.27712 -1.69307 -0.956794 -2.071957 -2.390359 " transform="matrix(-1.00005,0,0,1.00002,0.990439,60.327907)"/>
<path style="fill:none;stroke-width:0.3985;stroke-linecap:round;stroke-linejoin:round;stroke:rgb(0%,0%,0%);stroke-opacity:1;stroke-miterlimit:10;" d="M -2.072658 2.390359 C -1.69377 0.956794 -0.850062 0.27712 0.00145752 -0.000218416 C -0.850062 -0.277557 -1.69377 -0.957231 -2.072658 -2.390796 " transform="matrix(1.00005,0,0,-1.00002,119.654792,60.327907)"/>
<path style="fill:none;stroke-width:0.3985;stroke-linecap:butt;stroke-linejoin:miter;stroke:rgb(0%,0%,0%);stroke-opacity:1;stroke-miterlimit:10;" d="M 0.00160272 -59.131848 L 0.00160272 59.131411 " transform="matrix(1.00005,0,0,-1.00002,60.322616,60.327907)"/>
<path style="fill:none;stroke-width:0.3985;stroke-linecap:round;stroke-linejoin:round;stroke:rgb(0%,0%,0%);stroke-opacity:1;stroke-miterlimit:10;" d="M -2.072324 2.392108 C -1.693426 0.95468 -0.849692 0.278933 0.00185305 0.00160272 C -0.849692 -0.279633 -1.693426 -0.955381 -2.072324 -2.392809 " transform="matrix(0,1.00002,1.00005,0,60.322616,119.658303)"/>
<path style="fill:none;stroke-width:0.3985;stroke-linecap:round;stroke-linejoin:round;stroke:rgb(0%,0%,0%);stroke-opacity:1;stroke-miterlimit:10;" d="M -2.072761 2.392809 C -1.693862 0.955381 -0.850129 0.279633 0.00141622 -0.00160272 C -0.850129 -0.278933 -1.693862 -0.95468 -2.072761 -2.392108 " transform="matrix(0,-1.00002,-1.00005,0,60.322616,0.99751)"/>
<path style="fill:none;stroke-width:0.79701;stroke-linecap:butt;stroke-linejoin:miter;stroke:rgb(0%,0%,100%);stroke-opacity:1;stroke-miterlimit:10;" d="M 0.00160272 -0.000218416 L 6.364566 0.249777 L 12.606441 0.999762 L 18.621765 2.218487 L 24.285545 3.870798 L 29.500128 5.905913 L 34.171769 8.257429 L 38.222348 10.851127 L 41.585461 13.601072 L 44.21033 16.421328 L 46.057894 19.210335 L 47.120341 21.87825 L 47.385952 24.319608 L 46.882071 26.452378 L 45.639946 28.182812 L 43.710355 29.440599 L 41.155795 30.151522 L 38.054388 30.260895 L 34.495972 29.729656 L 30.578199 28.530461 L 26.394814 26.655498 L 22.055188 24.108674 L 17.672594 20.921238 L 13.344686 17.124439 L 9.169113 12.77687 L 5.243528 7.952748 L 1.649958 2.730196 L -1.541289 -2.793131 L -4.263809 -8.515673 L -6.482448 -14.328057 L -8.158146 -20.117004 L -9.279183 -25.765328 L -9.853373 -31.155845 L -9.888528 -36.183089 L -9.419801 -40.745497 L -8.497972 -44.737605 L -7.177726 -48.085194 L -5.533277 -50.714048 L -3.642746 -52.573386 L -1.588162 -53.616334 L 0.532826 -53.827267 L 2.626471 -53.198373 L 4.610747 -51.745277 L 6.391908 -49.495322 L 7.884021 -46.499288 L 9.012871 -42.819675 L 9.712055 -38.530698 L 9.9347 -33.7222 L 9.633934 -28.499648 L 8.790226 -22.968509 L 7.387952 -17.234249 L 5.438831 -11.417959 L 2.962392 -5.636824 L 0.00160272 -0.000218416 L -3.400571 5.386393 L -7.169914 10.417542 L -11.228305 15.015106 L -15.493716 19.09315 L -19.864591 22.59308 L -24.235467 25.464116 L -28.508691 27.675009 L -32.574893 29.214041 L -36.324706 30.077305 L -39.668289 30.284332 L -42.504084 29.866372 L -44.753972 28.87811 L -46.347642 27.374234 L -47.230411 25.432867 L -47.351498 23.132131 L -46.687469 20.565777 L -45.230511 17.823644 L -42.992341 15.0112 L -39.996397 12.214381 L -36.281739 9.530841 L -31.910864 7.046516 L -26.954081 4.843435 L -21.501228 2.991909 L -15.653865 1.550532 L -9.50964 0.56227 L -3.189644 0.0622803 L 3.185037 0.0622803 L 9.50894 0.56227 L 15.649258 1.550532 L 21.500528 2.991909 L 26.95338 4.843435 L 31.906257 7.046516 L 36.281039 9.526935 L 39.995697 12.214381 L 42.991641 15.0112 L 45.233716 17.823644 L 46.686768 20.565777 L 47.350798 23.132131 L 47.22971 25.432867 L 46.350848 27.374234 L 44.757177 28.87811 L 42.50729 29.866372 L 39.667588 30.280426 L 36.327911 30.077305 L 32.574193 29.214041 L 28.511896 27.678916 L 24.238672 25.468022 L 19.863891 22.596986 L 15.496922 19.097056 L 11.23151 15.019012 L 7.169213 10.421448 L 3.39987 5.386393 L 0.00160272 -0.000218416 L -2.963093 -5.632918 L -5.439531 -11.417959 L -7.388653 -17.234249 L -8.790926 -22.964603 L -9.634634 -28.499648 L -9.9354 -33.7222 L -9.712755 -38.526792 L -9.013572 -42.815768 L -7.884722 -46.495382 L -6.392609 -49.495322 L -4.615354 -51.741371 L -2.627172 -53.198373 L -0.533527 -53.827267 L 1.587461 -53.616334 L 3.642046 -52.577292 L 5.532576 -50.717954 L 7.177025 -48.085194 L 8.497272 -44.741511 L 9.419101 -40.745497 L 9.887827 -36.186995 L 9.852673 -31.159751 L 9.282389 -25.765328 L 8.157445 -20.12091 L 6.481747 -14.331963 L 4.267014 -8.519579 L 1.540588 -2.793131 L -1.646752 2.730196 L -5.240323 7.952748 L -9.165908 12.77687 L -13.34148 17.120533 L -17.669389 20.917332 L -22.055888 24.108674 L -26.391609 26.655498 L -30.574993 28.530461 L -34.496672 29.729656 L -38.051182 30.260895 L -41.15259 30.151522 L -43.711055 29.440599 L -45.640646 28.186718 L -46.882772 26.452378 L -47.386653 24.323514 L -47.117135 21.87825 L -46.058594 19.214241 L -44.21103 16.421328 L -41.590068 13.604978 L -38.226955 10.851127 L -34.176376 8.257429 L -29.500828 5.905913 L -24.286245 3.870798 L -18.622466 2.218487 L -12.611048 0.999762 L -6.365266 0.249777 L -0.00230333 -0.000218416 " transform="matrix(1.00005,0,0,-1.00002,60.322616,60.327907)"/>
</g>
</svg>
