<?xml version="1.0" encoding="UTF-8"?>
<svg xmlns="http://www.w3.org/2000/svg" xmlns:xlink="http://www.w3.org/1999/xlink" width="121pt" height="121pt" viewBox="0 0 121 121" version="1.1">
<g id="surface1">
<path style="fill:none;stroke-width:0.3985;stroke-linecap:butt;stroke-linejoin:miter;stroke:rgb(0%,0%,0%);stroke-opacity:1;stroke-miterlimit:10;" d="M -59.128253 -0.000218416 L 59.131459 -0.000218416 " transform="matrix(1.00005,0,0,-1.00002,60.322616,60.327907)"/>
<path style="fill:none;stroke-width:0.3985;stroke-linecap:round;stroke-linejoin:round;stroke:rgb(0%,0%,0%);stroke-opacity:1;stroke-miterlimit:10;" d="M -2.071957 2.390796 C -1.69307 0.957231 -0.849362 0.277557 -0.00174792 0.000218416 C -0.849362 -0.27712 -1.69307 -0.956794 -2.071957 -2.390359 " transform="matrix(-1.00005,0,0,1.00002,0.990439,60.327907)"/>
<path style="fill:none;stroke-width:0.3985;stroke-linecap:round;stroke-linejoin:round;stroke:rgb(0%,0%,0%);stroke-opacity:1;stroke-miterlimit:10;" d="M -2.072658 2.390359 C -1.69377 0.956794 -0.850062 0.27712 0.00145752 -0.000218416 C -0.850062 -0.277557 -1.69377 -0.957231 -2.072658 -2.390796 " transform="matrix(1.00005,0,0,-1.00002,119.654792,60.327907)"/>
<path style="fill:none;stroke-width:0.3985;stroke-linecap:butt;stroke-linejoin:miter;stroke:rgb(0%,0%,0%);stroke-opacity:1;stroke-miterlimit:10;" d="M 0.00160272 -59.131848 L 0.00160272 59.131411 " transform="matrix(1.00005,0,0,-1.00002,60.322616,60.327907)"/>
<path style="fill:none;stroke-width:0.3985;stroke-linecap:round;stroke-linejoin:round;stroke:rgb(0%,0%,0%);stroke-opacity:1;stroke-miterlimit:10;" d="M -2.072324 2.392108 C -1.693426 0.95468 -0.849692 0.278933 0.00185305 0.00160272 C -0.849692 -0.279633 -1.693426 -0.955381 -2.072324 -2.392809 " transform="matrix(0,1.00002,1.00005,0,60.322616,119.658303)"/>
<path style="fill:none;stroke-width:0.3985;stroke-linecap:round;stroke-linejoin:round;stroke:rgb(0%,0%,0%);stroke-opacity:1;stroke-miterlimit:10;" d="M -2.072761 2.392809 C -1.693862 0.955381 -0.850129 0.279633 0.00141622 -0.00160272 C -0.850129 -0.278933 -1.693862 -0.95468 -2.072761 -2.392108 " transform="matrix(0,-1.00002,-1.00005,0,60.322616,0.99751)"/>
<path style="fill:none;stroke-width:0.79701;stroke-linecap:butt;stroke-linejoin:miter;stroke:rgb(0%,0%,100%);stroke-opacity:1;stroke-miterlimit:10;" d="M 53.858285 -0.000218416 L 53.436431 2.113021 L 52.182587 4.132511 L 50.128003 5.968412 L 47.315643 7.538693 L 43.800194 8.769137 L 39.651964 9.581621 L 34.968604 9.925364 L 29.839955 9.761305 L 24.371478 9.054288 L 18.680356 7.792594 L 12.875959 5.976225 L 7.071562 3.628615 L 1.388252 0.784922 L -4.068506 -2.511887 L -9.201062 -6.195407 L -13.911764 -10.191421 L -18.126397 -14.413993 L -21.774652 -18.765468 L -24.809657 -23.148193 L -27.188444 -27.456701 L -28.891484 -31.581618 L -29.922682 -35.421385 L -30.289851 -38.874441 L -30.02424 -41.847038 L -29.176626 -44.25324 L -27.793883 -46.014923 L -25.954131 -47.077402 L -23.735492 -47.393802 L -21.227805 -46.928967 L -18.520909 -45.67118 L -15.716361 -43.624346 L -12.904002 -40.811902 L -10.185388 -37.27291 L -7.642546 -33.062057 L -5.365316 -28.245747 L -3.420101 -22.90601 L -1.869397 -17.144407 L -0.76789 -11.066403 L -0.142921 -4.781373 L -0.0140215 1.5935 L -0.392909 7.941029 L -1.260053 14.136218 L -2.592018 20.073599 L -4.345836 25.632081 L -6.466824 30.721823 L -8.884672 35.249077 L -11.525165 39.131811 L -14.306276 42.315342 L -17.126447 44.74498 L -19.891934 46.397291 L -22.512897 47.256649 L -24.887778 47.330866 L -26.926738 46.639474 L -28.543845 45.221533 L -29.668789 43.123919 L -30.235167 40.428661 L -30.188294 37.206069 L -29.493016 33.545986 L -28.125897 29.549972 L -26.083031 25.319588 L -23.372229 20.9603 L -20.028646 16.581481 L -16.087437 12.280786 L -11.615004 8.159775 L -6.681657 4.312195 L -1.373329 0.812265 L 4.208424 -2.265798 L 9.965948 -4.867309 L 15.782064 -6.953204 L 21.543494 -8.492236 L 27.140871 -9.476591 L 32.453105 -9.910176 L 37.370828 -9.816428 L 41.796388 -9.230503 L 45.639946 -8.203179 L 48.811662 -6.793051 L 51.252946 -5.078242 L 52.91302 -3.140781 L 53.748915 -1.062697 L 53.748915 1.06226 L 52.91302 3.140344 L 51.256852 5.077805 L 48.815568 6.792614 L 45.639946 8.202743 L 41.800294 9.230066 L 37.374734 9.815992 L 32.453105 9.90974 L 27.140871 9.476155 L 21.5474 8.491799 L 15.78597 6.952768 L 9.965948 4.870778 L 4.208424 2.265361 L -1.373329 -0.808796 L -6.677751 -4.308726 L -11.611098 -8.160211 L -16.087437 -12.281223 L -20.02474 -16.578012 L -23.372229 -20.960737 L -26.083031 -25.320025 L -28.125897 -29.546502 L -29.493016 -33.546422 L -30.188294 -37.202599 L -30.235167 -40.425191 L -29.668789 -43.124356 L -28.547751 -45.218064 L -26.930644 -46.639911 L -24.887778 -47.331303 L -22.512897 -47.257086 L -19.891934 -46.397728 L -17.126447 -44.745417 L -14.306276 -42.315778 L -11.529071 -39.132248 L -8.884672 -35.249513 L -6.466824 -30.72226 L -4.345836 -25.636424 L -2.592018 -20.074036 L -1.260053 -14.140561 L -0.392909 -7.941466 L -0.0140215 -1.597843 L -0.142921 4.77703 L -0.76789 11.065967 L -1.869397 17.14397 L -3.420101 22.905573 L -5.36141 28.241404 L -7.642546 33.057714 L -10.185388 37.272474 L -12.904002 40.811465 L -15.716361 43.623909 L -18.520909 45.670743 L -21.227805 46.928531 L -23.735492 47.393365 L -25.954131 47.076965 L -27.793883 46.014486 L -29.17272 44.252803 L -30.028146 41.850507 L -30.289851 38.87791 L -29.922682 35.424854 L -28.89539 31.585087 L -27.188444 27.46017 L -24.809657 23.151662 L -21.778558 18.768937 L -18.130303 14.417462 L -13.91567 10.19489 L -9.201062 6.198876 L -4.068506 2.515356 L 1.388252 -0.781453 L 7.071562 -3.629052 L 12.872053 -5.976661 L 18.67645 -7.789125 L 24.371478 -9.050819 L 29.836048 -9.757836 L 34.964698 -9.925801 L 39.651964 -9.582058 L 43.796288 -8.769574 L 47.311737 -7.543036 L 50.128003 -5.968849 L 52.182587 -4.132948 L 53.432525 -2.113457 L 53.858285 -0.000218416 " transform="matrix(1.00005,0,0,-1.00002,60.322616,60.327907)"/>
</g>
</svg>
