<?xml version="1.0" encoding="UTF-8"?>
<svg xmlns="http://www.w3.org/2000/svg" xmlns:xlink="http://www.w3.org/1999/xlink" width="121pt" height="121pt" viewBox="0 0 121 121" version="1.1">
<g id="surface1">
<path style="fill:none;stroke-width:0.3985;stroke-linecap:butt;stroke-linejoin:miter;stroke:rgb(0%,0%,0%);stroke-opacity:1;stroke-miterlimit:10;" d="M -59.128253 -0.000218416 L 59.131459 -0.000218416 " transform="matrix(1.00005,0,0,-1.00002,60.322616,60.327907)"/>
<path style="fill:none;stroke-width:0.3985;stroke-linecap:round;stroke-linejoin:round;stroke:rgb(0%,0%,0%);stroke-opacity:1;stroke-miterlimit:10;" d="M -2.071957 2.390796 C -1.69307 0.957231 -0.849362 0.277557 -0.00174792 0.000218416 C -0.849362 -0.27712 -1.69307 -0.956794 -2.071957 -2.390359 " transform="matrix(-1.00005,0,0,1.00002,0.990439,60.327907)"/>
<path style="fill:none;stroke-width:0.3985;stroke-linecap:round;stroke-linejoin:round;stroke:rgb(0%,0%,0%);stroke-opacity:1;stroke-miterlimit:10;" d="M -2.072658 2.390359 C -1.69377 0.956794 -0.850062 0.27712 0.00145752 -0.000218416 C -0.850062 -0.277557 -1.69377 -0.957231 -2.072658 -2.390796 " transform="matrix(1.00005,0,0,-1.00002,119.654792,60.327907)"/>
<path style="fill:none;stroke-width:0.3985;stroke-linecap:butt;stroke-linejoin:miter;stroke:rgb(0%,0%,0%);stroke-opacity:1;stroke-miterlimit:10;" d="M 0.00160272 -59.131848 L 0.00160272 59.131411 " transform="matrix(1.00005,0,0,-1.00002,60.322616,60.327907)"/>
<path style="fill:none;stroke-width:0.3985;stroke-linecap:round;stroke-linejoin:round;stroke:rgb(0%,0%,0%);stroke-opacity:1;stroke-miterlimit:10;" d="M -2.072324 2.392108 C -1.693426 0.95468 -0.849692 0.278933 0.00185305 0.00160272 C -0.849692 -0.279633 -1.693426 -0.955381 -2.072324 -2.392809 " transform="matrix(0,1.00002,1.00005,0,60.322616,119.658303)"/>
<path style="fill:none;stroke-width:0.3985;stroke-linecap:round;stroke-linejoin:round;stroke:rgb(0%,0%,0%);stroke-opacity:1;stroke-miterlimit:10;" d="M -2.072761 2.392809 C -1.693862 0.955381 -0.850129 0.279633 0.00141622 -0.00160272 C -0.850129 -0.278933 -1.693862 -0.95468 -2.072761 -2.392108 " transform="matrix(0,-1.00002,-1.00005,0,60.322616,0.99751)"/>
<path style="fill:none;stroke-width:0.79701;stroke-linecap:butt;stroke-linejoin:miter;stroke:rgb(0%,0%,100%);stroke-opacity:1;stroke-miterlimit:10;" d="M 53.858285 -0.000218416 L 53.631734 4.273134 L 52.963798 8.495705 L 51.862291 12.612811 L 50.342836 16.577575 L 48.428869 20.343125 L 46.151639 23.862586 L 43.542394 27.100802 L 40.640196 30.022619 L 37.48801 32.604598 L 34.128803 34.815492 L 30.613353 36.647486 L 26.984629 38.088864 L 23.293407 39.139624 L 19.586561 39.799767 L 15.907057 40.081011 L 12.293957 39.998982 L 8.794132 39.573209 L 5.438831 38.831036 L 2.255396 37.795901 L -0.724923 36.502958 L -3.49041 34.987363 L -6.021534 33.284272 L -8.306576 31.424934 L -10.349442 29.444505 L -12.146227 27.37814 L -13.704743 25.260995 L -15.036708 23.120413 L -16.149933 20.975925 L -17.071762 18.858779 L -17.810007 16.780696 L -18.395915 14.757299 L -18.845111 12.796401 L -19.181032 10.905813 L -19.423207 9.085537 L -19.595074 7.32776 L -19.708349 5.632481 L -19.778658 3.984077 L -19.821625 2.374734 L -19.841155 0.788828 L -19.841155 -0.789265 L -19.821625 -2.375171 L -19.778658 -3.984514 L -19.708349 -5.632918 L -19.595074 -7.328197 L -19.423207 -9.085974 L -19.181032 -10.90625 L -18.845111 -12.796837 L -18.395915 -14.75383 L -17.810007 -16.781133 L -17.071762 -18.85531 L -16.149933 -20.976361 L -15.036708 -23.116944 L -13.704743 -25.261432 L -12.146227 -27.378577 L -10.349442 -29.444942 L -8.306576 -31.421465 L -6.021534 -33.280803 L -3.49041 -34.9878 L -0.724923 -36.503395 L 2.255396 -37.796337 L 5.438831 -38.831473 L 8.794132 -39.573646 L 12.297863 -39.999418 L 15.907057 -40.081448 L 19.586561 -39.800204 L 23.293407 -39.140061 L 26.984629 -38.0893 L 30.613353 -36.647923 L 34.128803 -34.815928 L 37.48801 -32.605035 L 40.640196 -30.023055 L 43.542394 -27.101239 L 46.151639 -23.863022 L 48.428869 -20.343562 L 50.342836 -16.578012 L 51.862291 -12.613247 L 52.963798 -8.496142 L 53.631734 -4.27357 L 53.858285 -0.000218416 " transform="matrix(1.00005,0,0,-1.00002,60.322616,60.327907)"/>
</g>
</svg>
