<?xml version="1.0" encoding="UTF-8"?>
<svg xmlns="http://www.w3.org/2000/svg" xmlns:xlink="http://www.w3.org/1999/xlink" width="110pt" height="116pt" viewBox="0 0 110 116" version="1.1">
<g id="surface1">
<path style=" stroke:none;fill-rule:nonzero;fill:rgb(50%,50%,100%);fill-opacity:0.5;" d="M 0.953125 46.851562 L 5.453125 39.691406 L 9.949219 33.152344 L 14.445312 27.234375 L 18.941406 21.941406 L 23.441406 17.273438 L 27.9375 13.222656 L 32.433594 9.800781 L 36.933594 6.996094 L 41.429688 4.816406 L 45.925781 3.261719 L 50.421875 2.328125 L 54.921875 2.015625 L 59.417969 2.328125 L 63.914062 3.261719 L 68.410156 4.816406 L 72.910156 6.996094 L 77.40625 9.796875 L 81.902344 13.222656 L 86.398438 17.269531 L 90.898438 21.941406 L 95.394531 27.234375 L 99.890625 33.148438 L 104.386719 39.6875 L 108.886719 46.851562 L 108.886719 69.269531 L 104.386719 71.136719 L 99.890625 73.003906 L 95.394531 74.875 L 90.898438 76.742188 L 86.398438 78.609375 L 81.902344 80.476562 L 77.40625 82.347656 L 72.910156 84.214844 L 68.410156 86.082031 L 63.914062 87.949219 L 59.417969 89.820312 L 54.921875 91.6875 L 50.421875 93.554688 L 45.925781 95.421875 L 41.429688 97.292969 L 36.933594 99.160156 L 32.433594 101.027344 L 27.9375 102.894531 L 23.441406 104.765625 L 18.941406 106.632812 L 9.949219 110.367188 L 5.453125 112.238281 L 0.953125 114.105469 Z M 0.953125 46.851562 "/>
<path style="fill:none;stroke-width:0.79701;stroke-linecap:butt;stroke-linejoin:miter;stroke:rgb(0%,0%,100%);stroke-opacity:1;stroke-miterlimit:10;" d="M 59.358766 94.146666 L 63.858631 101.30625 L 68.35459 107.844789 L 72.850549 113.762284 L 77.346508 119.05483 L 81.846373 123.722425 L 86.342332 127.772882 L 90.838291 131.194484 L 95.338156 133.998947 L 99.834115 136.17846 L 104.330074 137.733023 L 108.826032 138.666542 L 113.325897 138.979017 L 117.821856 138.666542 L 122.317815 137.733023 L 126.813774 136.17846 L 131.313639 133.998947 L 135.809598 131.19839 L 140.305557 127.772882 L 144.801516 123.726331 L 149.301381 119.05483 L 153.79734 113.762284 L 158.293298 107.848695 L 162.789257 101.310156 L 167.289122 94.146666 " transform="matrix(1.00003,0,0,-1.00008,-58.407422,141.00576)"/>
<path style="fill:none;stroke-width:0.79701;stroke-linecap:butt;stroke-linejoin:miter;stroke:rgb(0%,0%,100%);stroke-opacity:1;stroke-miterlimit:10;" d="M 59.358766 26.89814 L 63.858631 28.765178 L 68.35459 30.636122 L 77.346508 34.370198 L 81.846373 36.237237 L 86.342332 38.108181 L 90.838291 39.975219 L 95.338156 41.842257 L 99.834115 43.709295 L 104.330074 45.580239 L 108.826032 47.447277 L 113.325897 49.314315 L 117.821856 51.181353 L 122.317815 53.052298 L 126.813774 54.919336 L 131.313639 56.786374 L 135.809598 58.653412 L 140.305557 60.524356 L 144.801516 62.391394 L 149.301381 64.258432 L 153.79734 66.12547 L 158.293298 67.996415 L 162.789257 69.863453 L 167.289122 71.730491 " transform="matrix(1.00003,0,0,-1.00008,-58.407422,141.00576)"/>
<path style="fill:none;stroke-width:0.79701;stroke-linecap:butt;stroke-linejoin:miter;stroke:rgb(0%,0%,100%);stroke-opacity:1;stroke-miterlimit:10;" d="M 59.358766 26.89814 L 59.358766 94.146666 " transform="matrix(1.00003,0,0,-1.00008,-58.407422,141.00576)"/>
<path style="fill:none;stroke-width:0.79701;stroke-linecap:butt;stroke-linejoin:miter;stroke:rgb(0%,0%,100%);stroke-opacity:1;stroke-miterlimit:10;" d="M 167.289122 71.730491 L 167.289122 94.146666 " transform="matrix(1.00003,0,0,-1.00008,-58.407422,141.00576)"/>
</g>
</svg>
