<?xml version="1.0" encoding="UTF-8"?>
<svg xmlns="http://www.w3.org/2000/svg" xmlns:xlink="http://www.w3.org/1999/xlink" width="121pt" height="121pt" viewBox="0 0 121 121" version="1.1">
<g id="surface1">
<path style="fill:none;stroke-width:0.3985;stroke-linecap:butt;stroke-linejoin:miter;stroke:rgb(0%,0%,0%);stroke-opacity:1;stroke-miterlimit:10;" d="M -59.128253 -0.000218416 L 59.131459 -0.000218416 " transform="matrix(1.00005,0,0,-1.00002,60.322616,60.327907)"/>
<path style="fill:none;stroke-width:0.3985;stroke-linecap:round;stroke-linejoin:round;stroke:rgb(0%,0%,0%);stroke-opacity:1;stroke-miterlimit:10;" d="M -2.071957 2.390796 C -1.69307 0.957231 -0.849362 0.277557 -0.00174792 0.000218416 C -0.849362 -0.27712 -1.69307 -0.956794 -2.071957 -2.390359 " transform="matrix(-1.00005,0,0,1.00002,0.990439,60.327907)"/>
<path style="fill:none;stroke-width:0.3985;stroke-linecap:round;stroke-linejoin:round;stroke:rgb(0%,0%,0%);stroke-opacity:1;stroke-miterlimit:10;" d="M -2.072658 2.390359 C -1.69377 0.956794 -0.850062 0.27712 0.00145752 -0.000218416 C -0.850062 -0.277557 -1.69377 -0.957231 -2.072658 -2.390796 " transform="matrix(1.00005,0,0,-1.00002,119.654792,60.327907)"/>
<path style="fill:none;stroke-width:0.3985;stroke-linecap:butt;stroke-linejoin:miter;stroke:rgb(0%,0%,0%);stroke-opacity:1;stroke-miterlimit:10;" d="M 0.00160272 -59.131848 L 0.00160272 59.131411 " transform="matrix(1.00005,0,0,-1.00002,60.322616,60.327907)"/>
<path style="fill:none;stroke-width:0.3985;stroke-linecap:round;stroke-linejoin:round;stroke:rgb(0%,0%,0%);stroke-opacity:1;stroke-miterlimit:10;" d="M -2.072324 2.392108 C -1.693426 0.95468 -0.849692 0.278933 0.00185305 0.00160272 C -0.849692 -0.279633 -1.693426 -0.955381 -2.072324 -2.392809 " transform="matrix(0,1.00002,1.00005,0,60.322616,119.658303)"/>
<path style="fill:none;stroke-width:0.3985;stroke-linecap:round;stroke-linejoin:round;stroke:rgb(0%,0%,0%);stroke-opacity:1;stroke-miterlimit:10;" d="M -2.072761 2.392809 C -1.693862 0.955381 -0.850129 0.279633 0.00141622 -0.00160272 C -0.850129 -0.278933 -1.693862 -0.95468 -2.072761 -2.392108 " transform="matrix(0,-1.00002,-1.00005,0,60.322616,0.99751)"/>
<path style="fill:none;stroke-width:0.79701;stroke-linecap:butt;stroke-linejoin:miter;stroke:rgb(0%,0%,100%);stroke-opacity:1;stroke-miterlimit:10;" d="M 51.022489 -0.000218416 L 50.838905 3.59346 L 50.292057 7.148076 L 49.385852 10.620663 L 48.139821 13.968252 L 46.561775 17.151782 L 44.682962 20.147816 L 42.52682 22.913386 L 40.120691 25.421148 L 37.503634 27.651572 L 34.699087 29.585127 L 31.757827 31.198376 L 28.707199 32.491319 L 25.594073 33.456144 L 22.449699 34.088944 L 19.320949 34.393625 L 16.239072 34.385813 L 13.243128 34.077225 L 10.356554 33.479581 L 7.618409 32.624129 L 5.052131 31.530401 L 2.673344 30.22574 L 0.505484 28.741394 L -1.435825 27.108614 L -3.146677 25.358649 L -4.623166 23.522749 L -5.865291 21.632161 L -6.873054 19.722043 L -7.658171 17.815832 L -8.232361 15.944775 L -8.607342 14.132311 L -8.810457 12.401877 L -8.857329 10.765191 L -8.76749 9.24569 L -8.572187 7.847281 L -8.290951 6.577775 L -7.947219 5.441079 L -7.572237 4.433287 L -7.185538 3.550492 L -6.810557 2.784882 L -6.462918 2.124739 L -6.166058 1.554438 L -5.927788 1.058354 L -5.763734 0.613051 L -5.681707 0.198996 L -5.681707 -0.199433 L -5.763734 -0.613487 L -5.927788 -1.058791 L -6.166058 -1.554875 L -6.462918 -2.125176 L -6.810557 -2.785319 L -7.185538 -3.550929 L -7.572237 -4.433723 L -7.947219 -5.43761 L -8.290951 -6.578212 L -8.572187 -7.847718 L -8.76749 -9.246127 L -8.857329 -10.765628 L -8.810457 -12.402314 L -8.607342 -14.132748 L -8.232361 -15.945212 L -7.658171 -17.816268 L -6.873054 -19.718574 L -5.865291 -21.632598 L -4.623166 -23.519279 L -3.146677 -25.35518 L -1.435825 -27.109051 L 0.505484 -28.741831 L 2.673344 -30.226176 L 5.052131 -31.530838 L 7.618409 -32.624566 L 10.356554 -33.480018 L 13.239222 -34.077662 L 16.239072 -34.386249 L 19.320949 -34.394062 L 22.449699 -34.08938 L 25.594073 -33.456581 L 28.707199 -32.491756 L 31.757827 -31.202719 L 34.699087 -29.585564 L 37.503634 -27.652009 L 40.120691 -25.421585 L 42.52682 -22.913823 L 44.682962 -20.148253 L 46.561775 -17.156125 L 48.135915 -13.964783 L 49.385852 -10.617194 L 50.288151 -7.148513 L 50.838905 -3.593897 L 51.022489 -0.000218416 " transform="matrix(1.00005,0,0,-1.00002,60.322616,60.327907)"/>
</g>
</svg>
