<?xml version="1.0" encoding="UTF-8"?>
<svg xmlns="http://www.w3.org/2000/svg" xmlns:xlink="http://www.w3.org/1999/xlink" width="121pt" height="121pt" viewBox="0 0 121 121" version="1.1">
<g id="surface1">
<path style="fill:none;stroke-width:0.3985;stroke-linecap:butt;stroke-linejoin:miter;stroke:rgb(0%,0%,0%);stroke-opacity:1;stroke-miterlimit:10;" d="M -59.128253 -0.000218416 L 59.131459 -0.000218416 " transform="matrix(1.00005,0,0,-1.00002,60.322616,60.327907)"/>
<path style="fill:none;stroke-width:0.3985;stroke-linecap:round;stroke-linejoin:round;stroke:rgb(0%,0%,0%);stroke-opacity:1;stroke-miterlimit:10;" d="M -2.071957 2.390796 C -1.69307 0.957231 -0.849362 0.277557 -0.00174792 0.000218416 C -0.849362 -0.27712 -1.69307 -0.956794 -2.071957 -2.390359 " transform="matrix(-1.00005,0,0,1.00002,0.990439,60.327907)"/>
<path style="fill:none;stroke-width:0.3985;stroke-linecap:round;stroke-linejoin:round;stroke:rgb(0%,0%,0%);stroke-opacity:1;stroke-miterlimit:10;" d="M -2.072658 2.390359 C -1.69377 0.956794 -0.850062 0.27712 0.00145752 -0.000218416 C -0.850062 -0.277557 -1.69377 -0.957231 -2.072658 -2.390796 " transform="matrix(1.00005,0,0,-1.00002,119.654792,60.327907)"/>
<path style="fill:none;stroke-width:0.3985;stroke-linecap:butt;stroke-linejoin:miter;stroke:rgb(0%,0%,0%);stroke-opacity:1;stroke-miterlimit:10;" d="M 0.00160272 -59.131848 L 0.00160272 59.131411 " transform="matrix(1.00005,0,0,-1.00002,60.322616,60.327907)"/>
<path style="fill:none;stroke-width:0.3985;stroke-linecap:round;stroke-linejoin:round;stroke:rgb(0%,0%,0%);stroke-opacity:1;stroke-miterlimit:10;" d="M -2.072324 2.392108 C -1.693426 0.95468 -0.849692 0.278933 0.00185305 0.00160272 C -0.849692 -0.279633 -1.693426 -0.955381 -2.072324 -2.392809 " transform="matrix(0,1.00002,1.00005,0,60.322616,119.658303)"/>
<path style="fill:none;stroke-width:0.3985;stroke-linecap:round;stroke-linejoin:round;stroke:rgb(0%,0%,0%);stroke-opacity:1;stroke-miterlimit:10;" d="M -2.072761 2.392809 C -1.693862 0.955381 -0.850129 0.279633 0.00141622 -0.00160272 C -0.850129 -0.278933 -1.693862 -0.95468 -2.072761 -2.392108 " transform="matrix(0,-1.00002,-1.00005,0,60.322616,0.99751)"/>
<path style="fill:none;stroke-width:0.79701;stroke-linecap:butt;stroke-linejoin:miter;stroke:rgb(0%,0%,100%);stroke-opacity:1;stroke-miterlimit:10;" d="M 53.858285 -0.000218416 L 53.729385 3.386433 L 53.362216 6.753553 L 52.745059 10.081611 L 51.889633 13.351077 L 50.80375 16.542419 L 49.48741 19.636108 L 47.95233 22.616517 L 46.21023 25.464116 L 44.276733 28.167187 L 42.155745 30.710105 L 39.866797 33.073339 L 37.425513 35.249077 L 34.847517 37.229506 L 32.148433 38.999002 L 29.347792 40.553658 L 26.461217 41.881756 L 23.50824 42.983297 L 20.516202 43.854373 L 17.48901 44.491079 L 14.461817 44.897321 L 11.442437 45.065287 L 8.454305 45.0106 L 5.516952 44.733262 L 2.649908 44.233272 L -0.135109 43.530161 L -2.822475 42.623929 L -5.388753 41.530201 L -7.826131 40.256789 L -10.118985 38.823224 L -12.255597 37.237318 L -14.220342 35.518602 L -16.013222 33.678796 L -17.622516 31.741334 L -19.036508 29.714031 L -20.255197 27.624229 L -21.274677 25.483647 L -22.094949 23.311815 L -22.712105 21.128265 L -23.133959 18.944715 L -23.356604 16.788508 L -23.387853 14.675269 L -23.231611 12.612811 L -22.899596 10.624569 L -22.399621 8.72617 L -21.743404 6.92933 L -20.93485 5.24577 L -19.993491 3.691114 L -18.93495 2.27708 L -17.770946 1.007574 L -16.513197 -0.105685 L -15.181232 -1.050979 L -13.790676 -1.832213 L -12.357154 -2.441576 L -10.900196 -2.879067 L -9.435425 -3.136874 L -7.982373 -3.226716 L -6.552757 -3.140781 L -5.166108 -2.890786 L -3.841955 -2.476731 L -2.588112 -1.910336 L -1.428013 -1.199413 L -0.369472 -0.351774 L 0.575793 0.620863 L 1.388252 1.706779 L 2.067906 2.894255 L 2.595223 4.167667 L 2.966298 5.507484 L 3.177225 6.905893 L 3.220192 8.343365 L 3.087386 9.800367 L 2.78662 11.265181 L 2.306175 12.718277 L 1.653864 14.140124 L 0.829686 15.519002 L -0.158546 16.835382 L -1.310832 18.069733 L -2.615454 19.210335 L -4.068506 20.241564 L -5.654364 21.151702 L -7.365216 21.921218 L -9.19325 22.542299 L -11.115029 22.999322 L -13.122741 23.288378 L -15.196856 23.397751 L -17.325656 23.315722 L -19.48961 23.046196 L -21.673095 22.577455 L -23.856579 21.9095 L -26.020534 21.038423 L -28.15324 19.968132 L -30.227355 18.702533 L -32.231161 17.237718 L -34.149033 15.585407 L -35.957537 13.7456 L -37.644952 11.737828 L -39.195656 9.558184 L -40.590118 7.230106 L -41.820525 4.757499 L -42.867348 2.159895 L -43.722774 -0.550989 L -44.378991 -3.359526 L -44.820375 -6.246187 L -45.04302 -9.199253 L -45.046926 -12.195287 L -44.816469 -15.218664 L -44.355554 -18.245947 L -43.656371 -21.265418 L -42.730636 -24.25364 L -41.570537 -27.187175 L -40.183888 -30.054305 L -38.5785 -32.831593 L -36.754372 -35.503415 L -34.72713 -38.050239 L -32.500678 -40.452534 L -30.090643 -42.702489 L -27.508741 -44.776667 L -24.76669 -46.667254 L -21.884022 -48.35472 L -18.872454 -49.835159 L -15.751516 -51.096853 L -12.540739 -52.124176 L -9.255747 -52.924941 L -5.91607 -53.475711 L -2.541239 -53.784299 L 0.845311 -53.846798 L 4.23186 -53.659301 L 7.587161 -53.229623 L 10.903401 -52.553855 L 14.153239 -51.639811 L 17.324955 -50.495302 L 20.391208 -49.124236 L 23.34028 -47.53833 L 26.156545 -45.749303 L 28.816568 -43.761062 L 31.316443 -41.600949 L 33.63664 -39.27287 L 35.76544 -36.792451 L 37.691124 -34.183129 L 39.405883 -31.456621 L 40.905808 -28.632458 L 42.175275 -25.730173 L 43.222098 -22.765388 L 44.034557 -19.761542 L 44.612653 -16.734259 L 44.960292 -13.706976 L 45.073568 -10.691411 L 44.960292 -7.718814 L 44.628278 -4.793091 L 44.077524 -1.945492 L 43.319749 0.816172 L 42.366672 3.472368 L 41.226104 6.01138 L 39.91367 8.413676 L 38.437181 10.667537 L 36.820074 12.761245 L 35.070162 14.686988 L 33.203068 16.433047 L 31.242228 17.995515 L 29.199362 19.358769 L 27.093998 20.530621 L 24.941762 21.499352 L 22.766089 22.268867 L 20.578699 22.835262 L 18.403026 23.206349 L 16.254696 23.382126 L 14.153239 23.366502 L 12.110372 23.167287 L 10.141721 22.792294 L 8.266814 22.249337 L 6.497372 21.554038 L 4.845111 20.714211 L 3.325655 19.741574 L 1.942912 18.651752 L 0.716411 17.464276 L -0.357754 16.186958 L -1.263959 14.835422 L -2.002203 13.433107 L -2.568581 11.995635 L -2.959187 10.534727 L -3.17402 9.069913 L -3.220892 7.620723 L -3.091993 6.202783 L -2.802945 4.82781 L -2.349842 3.519242 L -1.74831 2.288798 L -0.998347 1.152102 L -0.119485 0.120873 L 0.884371 -0.789265 L 1.993691 -1.5705 L 3.204568 -2.211112 L 4.493566 -2.703289 L 5.852873 -3.035314 L 7.262958 -3.203279 L 8.704293 -3.203279 L 10.165157 -3.031408 L 11.629928 -2.683758 L 13.075168 -2.160331 L 14.48916 -1.465033 L 15.852373 -0.597863 L 17.149183 0.42946 L 18.363966 1.620843 L 19.477191 2.964566 L 20.481047 4.452818 L 21.356004 6.069973 L 22.090342 7.812125 L 22.672344 9.663651 L 23.086386 11.608924 L 23.332467 13.636228 L 23.394964 15.722123 L 23.269971 17.862706 L 22.949674 20.034537 L 22.430169 22.218087 L 21.711455 24.397731 L 20.789626 26.557844 L 19.672494 28.674989 L 18.356154 30.737448 L 16.840605 32.721783 L 15.141471 34.612371 L 13.262658 36.393585 L 11.208074 38.045896 L 8.993341 39.557584 L 6.626271 40.913026 L 4.12249 42.096596 L 1.493716 43.100482 L -1.240523 43.905153 L -4.072412 44.51061 L -6.978517 44.897321 L -9.943213 45.065287 L -12.946969 45.006694 L -15.974161 44.721543 L -19.005259 44.202023 L -22.016828 43.448131 L -24.989335 42.45987 L -27.911064 41.24505 L -30.758578 39.803673 L -33.508441 38.139644 L -36.15284 36.268587 L -38.664433 34.186598 L -41.031502 31.917112 L -43.238423 29.46013 L -45.265665 26.839089 L -47.109323 24.0618 L -48.74596 21.14389 L -50.17167 18.104888 L -51.374735 14.956514 L -52.347342 11.72611 L -53.081681 8.425394 L -53.573844 5.073899 L -53.823831 1.69506 L -53.823831 -1.691591 L -53.573844 -5.07043 L -53.081681 -8.421925 L -52.347342 -11.72264 L -51.374735 -14.956951 L -50.175576 -18.101419 L -48.74596 -21.140421 L -47.109323 -24.058331 L -45.265665 -26.835619 L -43.238423 -29.456661 L -41.035408 -31.913643 L -38.664433 -34.183129 L -36.15284 -36.265118 L -33.512347 -38.140081 L -30.758578 -39.80411 L -27.91497 -41.245487 L -24.993241 -42.460307 L -22.016828 -43.448568 L -19.005259 -44.198553 L -15.978067 -44.72198 L -12.950875 -45.007131 L -9.947119 -45.065723 L -6.982423 -44.897758 L -4.076318 -44.511047 L -1.244429 -43.90559 L 1.48981 -43.100919 L 4.118584 -42.097033 L 6.622365 -40.913463 L 8.989435 -39.558021 L 11.204168 -38.046332 L 13.258752 -36.397928 L 15.141471 -34.612807 L 16.840605 -32.72222 L 18.352248 -30.737885 L 19.668588 -28.675426 L 20.789626 -26.558281 L 21.711455 -24.398168 L 22.430169 -22.218524 L 22.945768 -20.034974 L 23.269971 -17.867049 L 23.394964 -15.726466 L 23.332467 -13.636664 L 23.090292 -11.609361 L 22.672344 -9.664088 L 22.090342 -7.812562 L 21.356004 -6.074316 L 20.484954 -4.453254 L 19.481097 -2.965003 L 18.367872 -1.625186 L 17.153089 -0.433803 L 15.856279 0.597426 L 14.48916 1.464596 L 13.075168 2.159895 L 11.629928 2.679415 L 10.169063 3.030971 L 8.708199 3.202843 L 7.262958 3.202843 L 5.852873 3.034877 L 4.497472 2.702853 L 3.204568 2.214581 L 1.997597 1.573969 L 0.884371 0.792734 L -0.119485 -0.12131 L -0.998347 -1.148633 L -1.744404 -2.289235 L -2.349842 -3.519679 L -2.802945 -4.828247 L -3.091993 -6.199313 L -3.220892 -7.617254 L -3.177926 -9.07035 L -2.959187 -10.531258 L -2.568581 -11.992166 L -2.002203 -13.433543 L -1.263959 -14.835859 L -0.357754 -16.183489 L 0.712505 -17.464713 L 1.942912 -18.652189 L 3.321749 -19.742011 L 4.845111 -20.710742 L 6.493466 -21.554475 L 8.262908 -22.249773 L 10.141721 -22.788825 L 12.106466 -23.167724 L 14.149333 -23.366939 L 16.254696 -23.382563 L 18.403026 -23.206786 L 20.578699 -22.835699 L 22.762183 -22.269304 L 24.941762 -21.499788 L 27.090092 -20.531058 L 29.195456 -19.359206 L 31.238322 -17.995952 L 33.203068 -16.433484 L 35.066256 -14.687425 L 36.820074 -12.761682 L 38.437181 -10.667974 L 39.91367 -8.414113 L 41.226104 -6.011817 L 42.366672 -3.476711 L 43.319749 -0.820515 L 44.077524 1.941149 L 44.624372 4.792654 L 44.960292 7.714471 L 45.073568 10.690974 L 44.960292 13.702633 L 44.612653 16.733822 L 44.034557 19.757199 L 43.226004 22.764951 L 42.179181 25.72583 L 40.909714 28.632021 L 39.409789 31.452278 L 37.695031 34.182692 L 35.76544 36.792014 L 33.63664 39.268527 L 31.320349 41.600512 L 28.820474 43.760625 L 26.156545 45.74496 L 23.344186 47.533987 L 20.395114 49.123799 L 17.328861 50.494865 L 14.157145 51.639374 L 10.907307 52.553418 L 7.591067 53.229186 L 4.23186 53.658865 L 0.849217 53.846361 L -2.537333 53.783862 L -5.912164 53.475275 L -9.251841 52.924504 L -12.536833 52.123739 L -15.751516 51.096416 L -18.868548 49.834722 L -21.880116 48.358189 L -24.762784 46.670723 L -27.504834 44.77623 L -30.090643 42.705959 L -32.496772 40.456004 L -34.723224 38.049802 L -36.754372 35.506884 L -38.574593 32.835062 L -40.183888 30.057774 L -41.570537 27.190644 L -42.72673 24.257109 L -43.656371 21.268887 L -44.355554 18.249417 L -44.812563 15.222133 L -45.046926 12.198756 L -45.04302 9.202723 L -44.820375 6.249657 L -44.378991 3.359089 L -43.72668 0.550552 L -42.867348 -2.156425 L -41.820525 -4.757936 L -40.594024 -7.226636 L -39.195656 -9.558621 L -37.648859 -11.734359 L -35.961443 -13.746037 L -34.149033 -15.581938 L -32.235067 -17.234249 L -30.231261 -18.699063 L -28.15324 -19.968569 L -26.02444 -21.03886 L -23.856579 -21.909936 L -21.673095 -22.577892 L -19.48961 -23.046632 L -17.325656 -23.320065 L -15.200762 -23.398188 L -13.122741 -23.288815 L -11.115029 -22.999758 L -9.19325 -22.542736 L -7.369122 -21.921655 L -5.658271 -21.152139 L -4.068506 -20.242001 L -2.615454 -19.210772 L -1.310832 -18.07017 L -0.158546 -16.835819 L 0.829686 -15.519439 L 1.653864 -14.140561 L 2.306175 -12.718714 L 2.78662 -11.265618 L 3.087386 -9.800804 L 3.220192 -8.343802 L 3.177225 -6.90633 L 2.966298 -5.507921 L 2.595223 -4.168104 L 2.067906 -2.894692 L 1.388252 -1.707216 L 0.575793 -0.6213 L -0.365566 0.351337 L -1.424107 1.198976 L -2.588112 1.9099 L -3.838049 2.476295 L -5.166108 2.890349 L -6.548851 3.140344 L -7.978467 3.22628 L -9.435425 3.136438 L -10.900196 2.87863 L -12.353248 2.441139 L -13.78677 1.835682 L -15.177326 1.054448 L -16.513197 0.105248 L -17.76704 -1.008011 L -18.93495 -2.27361 L -19.993491 -3.691551 L -20.93485 -5.246207 L -21.743404 -6.925861 L -22.399621 -8.7227 L -22.899596 -10.625006 L -23.231611 -12.609341 L -23.387853 -14.6718 L -23.356604 -16.788945 L -23.133959 -18.945152 L -22.716011 -21.124796 L -22.094949 -23.308346 L -21.278583 -25.480178 L -20.255197 -27.62076 L -19.036508 -29.714468 L -17.622516 -31.737865 L -16.017128 -33.679232 L -14.224248 -35.515133 L -12.255597 -37.233849 L -10.118985 -38.819755 L -7.826131 -40.257226 L -5.392659 -41.526732 L -2.822475 -42.62046 L -0.139015 -43.530598 L 2.646002 -44.233709 L 5.516952 -44.733699 L 8.454305 -45.011037 L 11.438531 -45.065723 L 14.457911 -44.893852 L 17.48901 -44.491516 L 20.512296 -43.85481 L 23.50824 -42.983734 L 26.457311 -41.882193 L 29.343886 -40.554095 L 32.144527 -38.999438 L 34.843611 -37.233849 L 37.421607 -35.25342 L 39.866797 -33.077682 L 42.155745 -30.710542 L 44.272827 -28.17153 L 46.21023 -25.468459 L 47.95233 -22.616954 L 49.483504 -19.636544 L 50.80375 -16.542856 L 51.889633 -13.351514 L 52.745059 -10.082048 L 53.362216 -6.757896 L 53.729385 -3.390776 L 53.858285 -0.000218416 " transform="matrix(1.00005,0,0,-1.00002,60.322616,60.327907)"/>
</g>
</svg>
