<?xml version="1.0" encoding="UTF-8"?>
<svg xmlns="http://www.w3.org/2000/svg" xmlns:xlink="http://www.w3.org/1999/xlink" width="185pt" height="157pt" viewBox="0 0 185 157" version="1.1">
<defs>
<clipPath id="clip1">
  <path d="M 14 0 L 183.875 0 L 183.875 157 L 14 157 Z M 14 0 "/>
</clipPath>
<clipPath id="clip2">
  <path d="M 16 5 L 183.875 5 L 183.875 144 L 16 144 Z M 16 5 "/>
</clipPath>
</defs>
<g id="surface1">
<g clip-path="url(#clip1)" clip-rule="nonzero">
<path style="fill:none;stroke-width:0.79701;stroke-linecap:butt;stroke-linejoin:miter;stroke:rgb(0%,0%,100%);stroke-opacity:1;stroke-miterlimit:10;" d="M 188.202648 3.841391 L 173.035437 7.782482 L 158.665062 11.723573 L 145.095428 15.664664 L 132.322629 19.60966 L 120.346666 23.550751 L 109.171443 27.491842 L 98.793056 31.432933 L 89.21541 35.374024 L 80.430693 39.315115 L 72.450623 43.256206 L 65.263482 47.197297 L 58.877083 51.138388 L 53.291425 55.079479 L 48.498695 59.02057 L 44.510614 62.961661 L 41.315461 66.902752 L 38.921049 70.843843 L 37.323473 74.784934 L 36.526638 78.726025 L 36.526638 82.667116 L 37.323473 86.608207 L 38.921049 90.549298 L 41.315461 94.490389 L 44.506708 98.435386 L 48.498695 102.376477 L 53.287519 106.317568 L 58.877083 110.258659 L 65.263482 114.19975 L 72.446717 118.14084 L 80.430693 122.081931 L 89.211504 126.023022 L 98.773525 129.964113 L 109.167537 133.905204 L 120.34276 137.846295 L 132.303099 141.787386 L 145.079804 145.728477 L 158.645532 149.669568 L 173.023719 153.610659 L 188.202648 157.55175 " transform="matrix(1.00005,0,0,-1.00008,-10.40737,159.00576)"/>
</g>
<path style="fill:none;stroke-width:0.79701;stroke-linecap:butt;stroke-linejoin:miter;stroke:rgb(100%,0%,0%);stroke-opacity:1;stroke-miterlimit:10;" d="M 12.141138 3.841391 L 12.141138 157.55175 " transform="matrix(1.00005,0,0,-1.00008,-10.40737,159.00576)"/>
<g clip-path="url(#clip2)" clip-rule="nonzero">
<path style="fill:none;stroke-width:0.79701;stroke-linecap:butt;stroke-linejoin:miter;stroke:rgb(0%,0%,0%);stroke-opacity:1;stroke-miterlimit:10;" d="M 194.272657 142.181886 L 133.564755 142.181886 L 60.709022 80.698523 M 194.272657 111.438252 L 60.709022 111.438252 L 60.709022 80.698523 M 194.272657 73.011638 L 37.944536 73.011638 M 37.944536 73.011638 L 60.709022 80.698523 M 194.272657 26.89814 L 110.796362 26.89814 L 60.709022 80.698523 " transform="matrix(1.00005,0,0,-1.00008,-10.40737,159.00576)"/>
</g>
<path style="fill-rule:nonzero;fill:rgb(100%,0%,0%);fill-opacity:1;stroke-width:0.3985;stroke-linecap:butt;stroke-linejoin:miter;stroke:rgb(100%,0%,0%);stroke-opacity:1;stroke-miterlimit:10;" d="M 62.205041 80.698523 C 62.205041 81.522676 61.537106 82.190591 60.709022 82.190591 C 59.884845 82.190591 59.21691 81.522676 59.21691 80.698523 C 59.21691 79.874371 59.884845 79.202549 60.709022 79.202549 C 61.537106 79.202549 62.205041 79.874371 62.205041 80.698523 Z M 62.205041 80.698523 " transform="matrix(1.00005,0,0,-1.00008,-10.40737,159.00576)"/>
</g>
</svg>
