<?xml version="1.0" encoding="UTF-8"?>
<svg xmlns="http://www.w3.org/2000/svg" xmlns:xlink="http://www.w3.org/1999/xlink" width="121pt" height="121pt" viewBox="0 0 121 121" version="1.1">
<g id="surface1">
<path style="fill:none;stroke-width:0.3985;stroke-linecap:butt;stroke-linejoin:miter;stroke:rgb(0%,0%,0%);stroke-opacity:1;stroke-miterlimit:10;" d="M -59.128253 -0.000218416 L 59.131459 -0.000218416 " transform="matrix(1.00005,0,0,-1.00002,60.322616,60.327907)"/>
<path style="fill:none;stroke-width:0.3985;stroke-linecap:round;stroke-linejoin:round;stroke:rgb(0%,0%,0%);stroke-opacity:1;stroke-miterlimit:10;" d="M -2.071957 2.390796 C -1.69307 0.957231 -0.849362 0.277557 -0.00174792 0.000218416 C -0.849362 -0.27712 -1.69307 -0.956794 -2.071957 -2.390359 " transform="matrix(-1.00005,0,0,1.00002,0.990439,60.327907)"/>
<path style="fill:none;stroke-width:0.3985;stroke-linecap:round;stroke-linejoin:round;stroke:rgb(0%,0%,0%);stroke-opacity:1;stroke-miterlimit:10;" d="M -2.072658 2.390359 C -1.69377 0.956794 -0.850062 0.27712 0.00145752 -0.000218416 C -0.850062 -0.277557 -1.69377 -0.957231 -2.072658 -2.390796 " transform="matrix(1.00005,0,0,-1.00002,119.654792,60.327907)"/>
<path style="fill:none;stroke-width:0.3985;stroke-linecap:butt;stroke-linejoin:miter;stroke:rgb(0%,0%,0%);stroke-opacity:1;stroke-miterlimit:10;" d="M 0.00160272 -59.131848 L 0.00160272 59.131411 " transform="matrix(1.00005,0,0,-1.00002,60.322616,60.327907)"/>
<path style="fill:none;stroke-width:0.3985;stroke-linecap:round;stroke-linejoin:round;stroke:rgb(0%,0%,0%);stroke-opacity:1;stroke-miterlimit:10;" d="M -2.072324 2.392108 C -1.693426 0.95468 -0.849692 0.278933 0.00185305 0.00160272 C -0.849692 -0.279633 -1.693426 -0.955381 -2.072324 -2.392809 " transform="matrix(0,1.00002,1.00005,0,60.322616,119.658303)"/>
<path style="fill:none;stroke-width:0.3985;stroke-linecap:round;stroke-linejoin:round;stroke:rgb(0%,0%,0%);stroke-opacity:1;stroke-miterlimit:10;" d="M -2.072761 2.392809 C -1.693862 0.955381 -0.850129 0.279633 0.00141622 -0.00160272 C -0.850129 -0.278933 -1.693862 -0.95468 -2.072761 -2.392108 " transform="matrix(0,-1.00002,-1.00005,0,60.322616,0.99751)"/>
<path style="fill:none;stroke-width:0.79701;stroke-linecap:butt;stroke-linejoin:miter;stroke:rgb(0%,0%,100%);stroke-opacity:1;stroke-miterlimit:10;" d="M 0.00160272 -0.000218416 L 3.774852 0.132591 L 7.516852 0.527115 L 11.196355 1.183352 L 14.778208 2.089584 L 18.235066 3.234092 L 21.531776 4.601252 L 24.648808 6.179345 L 27.554913 7.948841 L 30.234466 9.882396 L 32.65622 11.956574 L 34.808456 14.151842 L 36.67555 16.433047 L 38.245784 18.772844 L 39.50744 21.14389 L 40.456611 23.514936 L 41.093298 25.854733 L 41.413595 28.132031 L 41.421407 30.319488 L 41.132359 32.381946 L 40.550357 34.295971 L 39.687118 36.030311 L 38.566081 37.56153 L 37.198962 38.870098 L 35.613103 39.924764 L 33.831942 40.721623 L 31.878915 41.233332 L 29.781364 41.448171 L 27.570537 41.362236 L 25.273777 40.963806 L 22.926238 40.248977 L 20.551356 39.221653 L 18.184287 37.881836 L 15.852373 36.237338 L 13.590767 34.295971 L 11.426813 32.073359 L 9.383946 29.585127 L 7.48951 26.850807 L 5.766939 23.889929 L 4.239672 20.722023 L 2.923332 17.382246 L 1.837448 13.894035 L 0.993741 10.284732 L 0.403926 6.585587 L 0.0758178 2.831756 L 0.00941483 -0.945512 L 0.208624 -4.714968 L 0.669538 -8.445362 L 1.384346 -12.101539 L 2.353048 -15.652249 L 3.556112 -19.074056 L 4.977916 -22.327897 L 6.606741 -25.398148 L 8.415245 -28.249653 L 10.387802 -30.862882 L 12.497072 -33.218304 L 14.711805 -35.3042 L 17.012471 -37.097133 L 19.363916 -38.58929 L 21.738797 -39.77286 L 24.105866 -40.643937 L 26.429969 -41.198613 L 28.687668 -41.444702 L 30.843811 -41.378297 L 32.874959 -41.011117 L 34.745959 -40.358786 L 36.433375 -39.429117 L 37.909864 -38.245547 L 39.155895 -36.823701 L 40.151939 -35.187015 L 40.874559 -33.358926 L 41.315943 -31.366779 L 41.456561 -29.237915 L 41.292507 -27.003585 L 40.812062 -24.691131 L 40.023039 -22.331803 L 38.91372 -19.956851 L 37.499728 -17.597523 L 35.781064 -15.281163 L 33.76554 -13.042926 L 31.480498 -10.902344 L 28.925938 -8.894572 L 26.133109 -7.043046 L 23.117634 -5.367299 L 19.902951 -3.890766 L 16.524214 -2.632978 L 13.000953 -1.605655 L 9.364416 -0.824421 L 5.649758 -0.297087 L 1.888227 -0.0314678 L -1.888928 -0.0314678 L -5.650458 -0.297087 L -9.365116 -0.824421 L -13.001653 -1.605655 L -16.521009 -2.632978 L -19.903652 -3.890766 L -23.114429 -5.367299 L -26.129903 -7.043046 L -28.926638 -8.894572 L -31.477292 -10.902344 L -33.76624 -13.03902 L -35.777858 -15.281163 L -37.500428 -17.597523 L -38.91442 -19.956851 L -40.019834 -22.331803 L -40.812763 -24.691131 L -41.289301 -27.003585 L -41.457262 -29.237915 L -41.312738 -31.366779 L -40.87526 -33.358926 L -40.15264 -35.187015 L -39.156596 -36.823701 L -37.910564 -38.245547 L -36.434075 -39.429117 L -34.74666 -40.358786 L -32.87566 -41.011117 L -30.848417 -41.378297 L -28.688369 -41.444702 L -26.430669 -41.202519 L -24.106567 -40.643937 L -21.739498 -39.77286 L -19.364616 -38.58929 L -17.013172 -37.097133 L -14.712505 -35.3042 L -12.497772 -33.22221 L -10.388503 -30.862882 L -8.415945 -28.249653 L -6.607442 -25.398148 L -4.978617 -22.331803 L -3.556813 -19.074056 L -2.353748 -15.656155 L -1.385047 -12.101539 L -0.666333 -8.445362 L -0.205418 -4.714968 L -0.0101154 -0.945512 L -0.0726123 2.831756 L -0.404627 6.585587 L -0.994441 10.280826 L -1.838149 13.894035 L -2.924032 17.382246 L -4.240373 20.722023 L -5.76764 23.886023 L -7.49021 26.850807 L -9.384647 29.585127 L -11.427513 32.073359 L -13.591468 34.295971 L -15.853073 36.237338 L -18.184988 37.881836 L -20.548151 39.221653 L -22.923032 40.248977 L -25.274477 40.9599 L -27.571237 41.362236 L -29.782064 41.448171 L -31.879616 41.233332 L -33.832643 40.721623 L -35.613804 39.928671 L -37.199662 38.870098 L -38.562875 37.56153 L -39.683913 36.030311 L -40.547151 34.295971 L -41.129153 32.381946 L -41.422107 30.319488 L -41.414295 28.132031 L -41.090093 25.854733 L -40.457312 23.514936 L -39.508141 21.14389 L -38.246485 18.772844 L -36.676251 16.433047 L -34.809157 14.151842 L -32.656921 11.96048 L -30.235167 9.882396 L -27.555613 7.948841 L -24.649508 6.183252 L -21.532477 4.601252 L -18.235767 3.234092 L -14.778908 2.089584 L -11.197056 1.183352 L -7.517553 0.527115 L -3.775552 0.132591 L 0.00160272 -0.000218416 " transform="matrix(1.00005,0,0,-1.00002,60.322616,60.327907)"/>
</g>
</svg>
