<?xml version="1.0" encoding="UTF-8"?>
<svg xmlns="http://www.w3.org/2000/svg" xmlns:xlink="http://www.w3.org/1999/xlink" width="121pt" height="121pt" viewBox="0 0 121 121" version="1.1">
<g id="surface1">
<path style="fill:none;stroke-width:0.3985;stroke-linecap:butt;stroke-linejoin:miter;stroke:rgb(0%,0%,0%);stroke-opacity:1;stroke-miterlimit:10;" d="M -59.128253 -0.000218416 L 59.131459 -0.000218416 " transform="matrix(1.00005,0,0,-1.00002,60.322616,60.327907)"/>
<path style="fill:none;stroke-width:0.3985;stroke-linecap:round;stroke-linejoin:round;stroke:rgb(0%,0%,0%);stroke-opacity:1;stroke-miterlimit:10;" d="M -2.071957 2.390796 C -1.69307 0.957231 -0.849362 0.277557 -0.00174792 0.000218416 C -0.849362 -0.27712 -1.69307 -0.956794 -2.071957 -2.390359 " transform="matrix(-1.00005,0,0,1.00002,0.990439,60.327907)"/>
<path style="fill:none;stroke-width:0.3985;stroke-linecap:round;stroke-linejoin:round;stroke:rgb(0%,0%,0%);stroke-opacity:1;stroke-miterlimit:10;" d="M -2.072658 2.390359 C -1.69377 0.956794 -0.850062 0.27712 0.00145752 -0.000218416 C -0.850062 -0.277557 -1.69377 -0.957231 -2.072658 -2.390796 " transform="matrix(1.00005,0,0,-1.00002,119.654792,60.327907)"/>
<path style="fill:none;stroke-width:0.3985;stroke-linecap:butt;stroke-linejoin:miter;stroke:rgb(0%,0%,0%);stroke-opacity:1;stroke-miterlimit:10;" d="M 0.00160272 -59.131848 L 0.00160272 59.131411 " transform="matrix(1.00005,0,0,-1.00002,60.322616,60.327907)"/>
<path style="fill:none;stroke-width:0.3985;stroke-linecap:round;stroke-linejoin:round;stroke:rgb(0%,0%,0%);stroke-opacity:1;stroke-miterlimit:10;" d="M -2.072324 2.392108 C -1.693426 0.95468 -0.849692 0.278933 0.00185305 0.00160272 C -0.849692 -0.279633 -1.693426 -0.955381 -2.072324 -2.392809 " transform="matrix(0,1.00002,1.00005,0,60.322616,119.658303)"/>
<path style="fill:none;stroke-width:0.3985;stroke-linecap:round;stroke-linejoin:round;stroke:rgb(0%,0%,0%);stroke-opacity:1;stroke-miterlimit:10;" d="M -2.072761 2.392809 C -1.693862 0.955381 -0.850129 0.279633 0.00141622 -0.00160272 C -0.850129 -0.278933 -1.693862 -0.95468 -2.072761 -2.392108 " transform="matrix(0,-1.00002,-1.00005,0,60.322616,0.99751)"/>
<path style="fill:none;stroke-width:0.79701;stroke-linecap:butt;stroke-linejoin:miter;stroke:rgb(0%,0%,100%);stroke-opacity:1;stroke-miterlimit:10;" d="M 53.858285 -0.000218416 L 53.690325 1.886463 L 53.194256 3.737988 L 52.373984 5.534827 L 51.237322 7.241824 L 49.795988 8.82773 L 48.0617 10.273014 L 46.057894 11.550332 L 43.796288 12.632341 L 41.308131 13.499512 L 38.612953 14.140124 L 35.738097 14.526835 L 32.714811 14.655738 L 29.570437 14.515116 L 26.336223 14.09325 L 23.043419 13.394045 L 19.723273 12.40969 L 16.410939 11.147996 L 13.137665 9.616777 L 9.930794 7.819938 L 6.821574 5.769197 L 3.841254 3.487993 L 1.013271 0.988043 L -1.631128 -1.707216 L -4.080224 -4.574346 L -6.306676 -7.58991 L -8.290951 -10.72266 L -10.02524 -13.953064 L -11.49001 -17.238155 L -12.681357 -20.554495 L -13.595374 -23.870835 L -14.224248 -27.148113 L -14.575793 -30.362892 L -14.650008 -33.483924 L -14.454706 -36.472145 L -14.001603 -39.300214 L -13.306326 -41.948598 L -12.380591 -44.382143 L -11.247835 -46.581318 L -9.927588 -48.518779 L -8.443288 -50.182809 L -6.826181 -51.549969 L -5.091893 -52.608541 L -3.279483 -53.346808 L -1.416295 -53.760862 L 0.474235 -53.842892 L 2.353048 -53.596803 L 4.192799 -53.018689 L 5.970054 -52.116364 L 7.649658 -50.901544 L 9.204268 -49.385949 L 10.610447 -47.585204 L 11.836948 -45.514933 L 12.868147 -43.194667 L 13.684512 -40.651749 L 14.258702 -37.909616 L 14.582905 -34.995612 L 14.645402 -31.93708 L 14.434475 -28.769174 L 13.946218 -25.515333 L 13.172819 -22.214618 L 12.12209 -18.894372 L 10.790126 -15.58975 L 9.188643 -12.328097 L 7.329361 -9.144567 L 5.220092 -6.066503 L 2.884271 -3.12125 L 0.333617 -0.336149 L -2.408433 2.265361 L -5.314538 4.655938 L -8.36126 6.823864 L -11.525165 8.749607 L -14.76719 10.417542 L -18.0639 11.815952 L -21.384047 12.937023 L -24.696381 13.780756 L -27.961843 14.339339 L -31.15309 14.620583 L -34.242779 14.624489 L -37.195756 14.362776 L -39.984679 13.851067 L -42.5783 13.09327 L -44.957087 12.116727 L -47.089793 10.933157 L -48.964699 9.569903 L -50.550557 8.050402 L -51.843461 6.401997 L -52.823881 4.648126 L -53.484004 2.820038 L -53.816019 0.945075 L -53.816019 -0.941606 L -53.484004 -2.816568 L -52.823881 -4.644657 L -51.843461 -6.402434 L -50.554463 -8.050839 L -48.964699 -9.57034 L -47.089793 -10.933593 L -44.957087 -12.117164 L -42.5783 -13.093707 L -39.984679 -13.851504 L -37.195756 -14.363212 L -34.242779 -14.624926 L -31.156996 -14.62102 L -27.961843 -14.339775 L -24.696381 -13.781193 L -21.384047 -12.93746 L -18.067806 -11.816388 L -14.76719 -10.417979 L -11.525165 -8.750043 L -8.365166 -6.824301 L -5.314538 -4.660281 L -2.408433 -2.265798 L 0.333617 0.335712 L 2.880365 3.120813 L 5.220092 6.066067 L 7.329361 9.14413 L 9.188643 12.32766 L 10.790126 15.589314 L 12.12209 18.893935 L 13.172819 22.214181 L 13.946218 25.514896 L 14.434475 28.768737 L 14.645402 31.936643 L 14.582905 34.995175 L 14.258702 37.905273 L 13.684512 40.651312 L 12.868147 43.19423 L 11.840855 45.51059 L 10.610447 47.584767 L 9.204268 49.385513 L 7.649658 50.901107 L 5.970054 52.115927 L 4.196705 53.018252 L 2.353048 53.596366 L 0.474235 53.846361 L -1.412389 53.760425 L -3.279483 53.346371 L -5.091893 52.608104 L -6.822275 51.549532 L -8.443288 50.182372 L -9.927588 48.518342 L -11.247835 46.580881 L -12.380591 44.381706 L -13.306326 41.948161 L -14.001603 39.303683 L -14.454706 36.471708 L -14.650008 33.483487 L -14.575793 30.366362 L -14.224248 27.151582 L -13.595374 23.870398 L -12.681357 20.554058 L -11.49001 17.237718 L -10.02524 13.952628 L -8.290951 10.72613 L -6.306676 7.589474 L -4.080224 4.573909 L -1.631128 1.706779 L 1.013271 -0.98848 L 3.841254 -3.48843 L 6.821574 -5.769634 L 9.930794 -7.816468 L 13.137665 -9.617214 L 16.410939 -11.148433 L 19.723273 -12.410126 L 23.043419 -13.394482 L 26.332317 -14.093687 L 29.566531 -14.515553 L 32.710905 -14.656175 L 35.738097 -14.527272 L 38.609047 -14.140561 L 41.308131 -13.499948 L 43.796288 -12.632778 L 46.053988 -11.546862 L 48.0617 -10.27345 L 49.792082 -8.828167 L 51.237322 -7.242261 L 52.373984 -5.535264 L 53.194256 -3.738425 L 53.690325 -1.882993 L 53.858285 -0.000218416 " transform="matrix(1.00005,0,0,-1.00002,60.322616,60.327907)"/>
</g>
</svg>
