<?xml version="1.0" encoding="UTF-8"?>
<svg xmlns="http://www.w3.org/2000/svg" xmlns:xlink="http://www.w3.org/1999/xlink" width="9pt" height="10pt" viewBox="0 0 9 10" version="1.1">
<g id="surface1">
<path style="fill:none;stroke-width:0.59776;stroke-linecap:butt;stroke-linejoin:miter;stroke:rgb(0%,0%,0%);stroke-opacity:1;stroke-miterlimit:10;" d="M 2.740332 1.545149 L 2.34582 1.853727 L 1.896624 2.162306 L 1.416179 2.45526 L 0.924016 2.724778 L 0.431854 2.955235 L -0.032967 3.146631 L -0.454821 3.275531 L -0.82199 3.34584 L -1.11885 3.34584 L -1.333683 3.271625 L -1.466489 3.127101 L -1.509456 2.904456 L -1.466489 2.615408 L -1.341495 2.259957 L -1.146193 1.845915 L -0.884487 1.385001 L -0.579815 0.892838 L -0.2478 0.373333 L 0.103745 -0.153985 L 0.443572 -0.677396 L 0.763868 -1.185183 L 1.045104 -1.661722 L 1.267749 -2.095294 L 1.423991 -2.474181 L 1.502113 -2.794478 L 1.4943 -3.044465 L 1.400555 -3.224144 L 1.216971 -3.325701 L 0.955265 -3.35695 L 0.615438 -3.313983 L 0.213114 -3.20852 L -0.236082 -3.040559 L -0.716527 -2.825726 L -1.212595 -2.567927 L -1.700852 -2.286691 L -2.165673 -1.982018 L -2.583621 -1.67344 " transform="matrix(1.00005,0,0,-1.00005,4.247812,4.900695)"/>
<path style="fill:none;stroke-width:0.59776;stroke-linecap:butt;stroke-linejoin:miter;stroke:rgb(0%,0%,0%);stroke-opacity:1;stroke-miterlimit:10;" d="M -3.357019 -2.720263 L -1.810222 -0.626617 M 1.966933 0.498326 L 3.513731 2.591972 " transform="matrix(1.00005,0,0,-1.00005,4.247812,4.900695)"/>
</g>
</svg>
